solid ASCII
  facet normal -0.000000e+00 0.000000e+00 1.000000e+00
    outer loop
      vertex   8.660254e+00 5.000000e+00 -5.000000e+00
      vertex   8.660254e+00 -5.000000e+00 -5.000000e+00
      vertex   2.500000e+01 5.000000e+00 -5.000000e+00
    endloop
  endfacet
  facet normal 0.000000e+00 0.000000e+00 1.000000e+00
    outer loop
      vertex   2.500000e+01 5.000000e+00 -5.000000e+00
      vertex   8.660254e+00 -5.000000e+00 -5.000000e+00
      vertex   2.500000e+01 -5.000000e+00 -5.000000e+00
    endloop
  endfacet
  facet normal 0.000000e+00 0.000000e+00 -1.000000e+00
    outer loop
      vertex   8.660254e+00 5.000000e+00 5.000000e+00
      vertex   2.500000e+01 5.000000e+00 5.000000e+00
      vertex   8.660254e+00 -5.000000e+00 5.000000e+00
    endloop
  endfacet
  facet normal 0.000000e+00 0.000000e+00 -1.000000e+00
    outer loop
      vertex   8.660254e+00 -5.000000e+00 5.000000e+00
      vertex   2.500000e+01 5.000000e+00 5.000000e+00
      vertex   2.500000e+01 -5.000000e+00 5.000000e+00
    endloop
  endfacet
  facet normal -8.660254e-01 0.000000e+00 -5.000000e-01
    outer loop
      vertex   8.660254e+00 -5.000000e+00 -5.000000e+00
      vertex   8.660254e+00 5.000000e+00 -5.000000e+00
      vertex   2.020726e+01 -5.000000e+00 -2.500000e+01
    endloop
  endfacet
  facet normal -8.660254e-01 0.000000e+00 -5.000000e-01
    outer loop
      vertex   2.020726e+01 -5.000000e+00 -2.500000e+01
      vertex   8.660254e+00 5.000000e+00 -5.000000e+00
      vertex   2.020726e+01 5.000000e+00 -2.500000e+01
    endloop
  endfacet
  facet normal -0.000000e+00 1.000000e+00 0.000000e+00
    outer loop
      vertex   8.660254e+00 5.000000e+00 -5.000000e+00
      vertex   2.500000e+01 5.000000e+00 -5.000000e+00
      vertex   2.020726e+01 5.000000e+00 -2.500000e+01
    endloop
  endfacet
  facet normal 1.554555e-08 1.000000e+00 -3.725290e-09
    outer loop
      vertex   2.020726e+01 5.000000e+00 -2.500000e+01
      vertex   2.500000e+01 5.000000e+00 -5.000000e+00
      vertex   2.500000e+01 5.000000e+00 -2.500000e+01
    endloop
  endfacet
  facet normal 8.660254e-01 0.000000e+00 -5.000000e-01
    outer loop
      vertex   8.660254e+00 5.000000e+00 2.500000e+01
      vertex   8.660254e+00 -5.000000e+00 2.500000e+01
      vertex   -6.661338e-15 5.000000e+00 1.000000e+01
    endloop
  endfacet
  facet normal 8.660254e-01 0.000000e+00 -5.000000e-01
    outer loop
      vertex   -6.661338e-15 5.000000e+00 1.000000e+01
      vertex   8.660254e+00 -5.000000e+00 2.500000e+01
      vertex   -6.661338e-15 -5.000000e+00 1.000000e+01
    endloop
  endfacet
  facet normal -8.660254e-01 0.000000e+00 5.000000e-01
    outer loop
      vertex   8.660254e+00 5.000000e+00 5.000000e+00
      vertex   8.660254e+00 -5.000000e+00 5.000000e+00
      vertex   2.020726e+01 5.000000e+00 2.500000e+01
    endloop
  endfacet
  facet normal -8.660254e-01 0.000000e+00 5.000000e-01
    outer loop
      vertex   2.020726e+01 5.000000e+00 2.500000e+01
      vertex   8.660254e+00 -5.000000e+00 5.000000e+00
      vertex   2.020726e+01 -5.000000e+00 2.500000e+01
    endloop
  endfacet
  facet normal 0.000000e+00 0.000000e+00 1.000000e+00
    outer loop
      vertex   2.020726e+01 5.000000e+00 2.500000e+01
      vertex   2.020726e+01 -5.000000e+00 2.500000e+01
      vertex   2.500000e+01 5.000000e+00 2.500000e+01
    endloop
  endfacet
  facet normal 0.000000e+00 0.000000e+00 1.000000e+00
    outer loop
      vertex   2.500000e+01 5.000000e+00 2.500000e+01
      vertex   2.020726e+01 -5.000000e+00 2.500000e+01
      vertex   2.500000e+01 -2.000000e+01 2.500000e+01
    endloop
  endfacet
  facet normal 0.000000e+00 0.000000e+00 1.000000e+00
    outer loop
      vertex   2.500000e+01 -2.000000e+01 2.500000e+01
      vertex   2.020726e+01 -5.000000e+00 2.500000e+01
      vertex   8.660254e+00 -5.000000e+00 2.500000e+01
    endloop
  endfacet
  facet normal -5.960464e-09 -6.492832e-09 1.000000e+00
    outer loop
      vertex   2.500000e+01 -2.000000e+01 2.500000e+01
      vertex   8.660254e+00 -5.000000e+00 2.500000e+01
      vertex   -2.500000e+01 -2.000000e+01 2.500000e+01
    endloop
  endfacet
  facet normal 0.000000e+00 -1.986822e-08 1.000000e+00
    outer loop
      vertex   -2.500000e+01 -2.000000e+01 2.500000e+01
      vertex   8.660254e+00 -5.000000e+00 2.500000e+01
      vertex   -8.660254e+00 -5.000000e+00 2.500000e+01
    endloop
  endfacet
  facet normal 0.000000e+00 -1.986822e-08 1.000000e+00
    outer loop
      vertex   -2.500000e+01 -2.000000e+01 2.500000e+01
      vertex   -8.660254e+00 -5.000000e+00 2.500000e+01
      vertex   -2.020726e+01 -5.000000e+00 2.500000e+01
    endloop
  endfacet
  facet normal 0.000000e+00 0.000000e+00 1.000000e+00
    outer loop
      vertex   8.660254e+00 5.000000e+00 2.500000e+01
      vertex   -8.660254e+00 5.000000e+00 2.500000e+01
      vertex   8.660254e+00 -5.000000e+00 2.500000e+01
    endloop
  endfacet
  facet normal 0.000000e+00 0.000000e+00 1.000000e+00
    outer loop
      vertex   8.660254e+00 -5.000000e+00 2.500000e+01
      vertex   -8.660254e+00 5.000000e+00 2.500000e+01
      vertex   -8.660254e+00 -5.000000e+00 2.500000e+01
    endloop
  endfacet
  facet normal -6.218222e-08 0.000000e+00 1.000000e+00
    outer loop
      vertex   -2.020726e+01 5.000000e+00 2.500000e+01
      vertex   -2.500000e+01 5.000000e+00 2.500000e+01
      vertex   -2.020726e+01 -5.000000e+00 2.500000e+01
    endloop
  endfacet
  facet normal -6.218222e-08 0.000000e+00 1.000000e+00
    outer loop
      vertex   -2.020726e+01 -5.000000e+00 2.500000e+01
      vertex   -2.500000e+01 5.000000e+00 2.500000e+01
      vertex   -2.500000e+01 -2.000000e+01 2.500000e+01
    endloop
  endfacet
  facet normal 0.000000e+00 1.000000e+00 0.000000e+00
    outer loop
      vertex   8.660254e+00 5.000000e+00 2.500000e+01
      vertex   -6.661338e-15 5.000000e+00 1.000000e+01
      vertex   -8.660254e+00 5.000000e+00 2.500000e+01
    endloop
  endfacet
  facet normal 4.559790e-09 1.000000e+00 -2.632596e-09
    outer loop
      vertex   8.660254e+00 5.000000e+00 5.000000e+00
      vertex   2.020726e+01 5.000000e+00 2.500000e+01
      vertex   2.500000e+01 5.000000e+00 5.000000e+00
    endloop
  endfacet
  facet normal 1.554555e-08 1.000000e+00 -2.316468e-16
    outer loop
      vertex   2.500000e+01 5.000000e+00 5.000000e+00
      vertex   2.020726e+01 5.000000e+00 2.500000e+01
      vertex   2.500000e+01 5.000000e+00 2.500000e+01
    endloop
  endfacet
  facet normal -8.660254e-01 -0.000000e+00 -5.000000e-01
    outer loop
      vertex   -6.661338e-15 5.000000e+00 1.000000e+01
      vertex   -6.661338e-15 -5.000000e+00 1.000000e+01
      vertex   -8.660254e+00 5.000000e+00 2.500000e+01
    endloop
  endfacet
  facet normal -8.660254e-01 -0.000000e+00 -5.000000e-01
    outer loop
      vertex   -8.660254e+00 5.000000e+00 2.500000e+01
      vertex   -6.661338e-15 -5.000000e+00 1.000000e+01
      vertex   -8.660254e+00 -5.000000e+00 2.500000e+01
    endloop
  endfacet
  facet normal 8.660254e-01 -0.000000e+00 5.000000e-01
    outer loop
      vertex   -8.660254e+00 -5.000000e+00 5.000000e+00
      vertex   -8.660254e+00 5.000000e+00 5.000000e+00
      vertex   -2.020726e+01 -5.000000e+00 2.500000e+01
    endloop
  endfacet
  facet normal 8.660254e-01 -0.000000e+00 5.000000e-01
    outer loop
      vertex   -2.020726e+01 -5.000000e+00 2.500000e+01
      vertex   -8.660254e+00 5.000000e+00 5.000000e+00
      vertex   -2.020726e+01 5.000000e+00 2.500000e+01
    endloop
  endfacet
  facet normal -9.050482e-01 -6.317521e-04 4.253085e-01
    outer loop
      vertex   4.369572e+00 -5.000000e+00 -2.430399e+00
      vertex   4.586057e+00 -2.000000e+01 -1.992005e+00
      vertex   4.659813e+00 -5.000000e+00 -1.812772e+00
    endloop
  endfacet
  facet normal -9.422607e-01 6.317521e-04 3.348795e-01
    outer loop
      vertex   4.659813e+00 -5.000000e+00 -1.812772e+00
      vertex   4.586057e+00 -2.000000e+01 -1.992005e+00
      vertex   4.814586e+00 -2.000000e+01 -1.348984e+00
    endloop
  endfacet
  facet normal -9.545314e-01 -6.317521e-04 2.981097e-01
    outer loop
      vertex   4.659813e+00 -5.000000e+00 -1.812772e+00
      vertex   4.814586e+00 -2.000000e+01 -1.348984e+00
      vertex   4.863250e+00 -5.000000e+00 -1.161377e+00
    endloop
  endfacet
  facet normal -9.790839e-01 6.317521e-04 2.034560e-01
    outer loop
      vertex   4.863250e+00 -5.000000e+00 -1.161377e+00
      vertex   4.814586e+00 -2.000000e+01 -1.348984e+00
      vertex   4.953430e+00 -2.000000e+01 -6.808332e-01
    endloop
  endfacet
  facet normal -9.862334e-01 -6.317521e-04 1.653578e-01
    outer loop
      vertex   4.863250e+00 -5.000000e+00 -1.161377e+00
      vertex   4.953430e+00 -2.000000e+01 -6.808332e-01
      vertex   4.976095e+00 -5.000000e+00 -4.883469e-01
    endloop
  endfacet
  facet normal -9.976686e-01 6.317521e-04 6.824240e-02
    outer loop
      vertex   4.976095e+00 -5.000000e+00 -4.883469e-01
      vertex   4.953430e+00 -2.000000e+01 -6.808332e-01
      vertex   5.000000e+00 -2.000000e+01 0.000000e+00
    endloop
  endfacet
  facet normal -9.995638e-01 -6.317521e-04 2.952554e-02
    outer loop
      vertex   4.976095e+00 -5.000000e+00 -4.883469e-01
      vertex   5.000000e+00 -2.000000e+01 0.000000e+00
      vertex   4.996244e+00 -5.000000e+00 1.937797e-01
    endloop
  endfacet
  facet normal -9.976686e-01 6.317521e-04 -6.824240e-02
    outer loop
      vertex   4.996244e+00 -5.000000e+00 1.937797e-01
      vertex   5.000000e+00 -2.000000e+01 0.000000e+00
      vertex   4.953430e+00 -2.000000e+01 6.808332e-01
    endloop
  endfacet
  facet normal -9.942742e-01 -6.317521e-04 -1.068567e-01
    outer loop
      vertex   4.996244e+00 -5.000000e+00 1.937797e-01
      vertex   4.953430e+00 -2.000000e+01 6.808332e-01
      vertex   4.923322e+00 -5.000000e+00 8.722966e-01
    endloop
  endfacet
  facet normal -9.790839e-01 6.317521e-04 -2.034560e-01
    outer loop
      vertex   4.923322e+00 -5.000000e+00 8.722966e-01
      vertex   4.953430e+00 -2.000000e+01 6.808332e-01
      vertex   4.814586e+00 -2.000000e+01 1.348984e+00
    endloop
  endfacet
  facet normal -9.704632e-01 -6.317521e-04 -2.412484e-01
    outer loop
      vertex   4.923322e+00 -5.000000e+00 8.722966e-01
      vertex   4.814586e+00 -2.000000e+01 1.348984e+00
      vertex   4.758688e+00 -5.000000e+00 1.534564e+00
    endloop
  endfacet
  facet normal -9.422607e-01 6.317521e-04 -3.348795e-01
    outer loop
      vertex   4.758688e+00 -5.000000e+00 1.534564e+00
      vertex   4.814586e+00 -2.000000e+01 1.348984e+00
      vertex   4.586057e+00 -2.000000e+01 1.992005e+00
    endloop
  endfacet
  facet normal -9.285742e-01 -6.317521e-04 -3.711462e-01
    outer loop
      vertex   4.758688e+00 -5.000000e+00 1.534564e+00
      vertex   4.586057e+00 -2.000000e+01 1.992005e+00
      vertex   4.505409e+00 -5.000000e+00 2.168246e+00
    endloop
  endfacet
  facet normal -8.878850e-01 6.317521e-04 -4.600649e-01
    outer loop
      vertex   4.505409e+00 -5.000000e+00 2.168246e+00
      vertex   4.586057e+00 -2.000000e+01 1.992005e+00
      vertex   4.272097e+00 -2.000000e+01 2.597920e+00
    endloop
  endfacet
  facet normal -8.693877e-01 -6.317521e-04 -4.941301e-01
    outer loop
      vertex   4.505409e+00 -5.000000e+00 2.168246e+00
      vertex   4.272097e+00 -2.000000e+01 2.597920e+00
      vertex   4.168203e+00 -5.000000e+00 2.761537e+00
    endloop
  endfacet
  facet normal -8.169697e-01 6.317521e-04 -5.766802e-01
    outer loop
      vertex   4.168203e+00 -5.000000e+00 2.761537e+00
      vertex   4.272097e+00 -2.000000e+01 2.597920e+00
      vertex   3.878556e+00 -2.000000e+01 3.155440e+00
    endloop
  endfacet
  facet normal -7.940062e-01 -6.317521e-04 -6.079094e-01
    outer loop
      vertex   4.168203e+00 -5.000000e+00 2.761537e+00
      vertex   3.878556e+00 -2.000000e+01 3.155440e+00
      vertex   3.753350e+00 -5.000000e+00 3.303386e+00
    endloop
  endfacet
  facet normal -7.308358e-01 6.317521e-04 -6.825530e-01
    outer loop
      vertex   3.753350e+00 -5.000000e+00 3.303386e+00
      vertex   3.878556e+00 -2.000000e+01 3.155440e+00
      vertex   3.412766e+00 -2.000000e+01 3.654180e+00
    endloop
  endfacet
  facet normal -7.038338e-01 -6.317521e-04 -7.103644e-01
    outer loop
      vertex   3.753350e+00 -5.000000e+00 3.303386e+00
      vertex   3.412766e+00 -2.000000e+01 3.654180e+00
      vertex   3.268581e+00 -5.000000e+00 3.783699e+00
    endloop
  endfacet
  facet normal -6.310878e-01 6.317521e-04 -7.757111e-01
    outer loop
      vertex   3.268581e+00 -5.000000e+00 3.783699e+00
      vertex   3.412766e+00 -2.000000e+01 3.654180e+00
      vertex   2.883402e+00 -2.000000e+01 4.084849e+00
    endloop
  endfacet
  facet normal -6.005503e-01 -6.317521e-04 -7.995868e-01
    outer loop
      vertex   3.268581e+00 -5.000000e+00 3.783699e+00
      vertex   2.883402e+00 -2.000000e+01 4.084849e+00
      vertex   2.722923e+00 -5.000000e+00 4.193529e+00
    endloop
  endfacet
  facet normal -5.195838e-01 6.317521e-04 -8.544192e-01
    outer loop
      vertex   2.722923e+00 -5.000000e+00 4.193529e+00
      vertex   2.883402e+00 -2.000000e+01 4.084849e+00
      vertex   2.300325e+00 -2.000000e+01 4.439426e+00
    endloop
  endfacet
  facet normal -4.860797e-01 -6.317521e-04 -8.739143e-01
    outer loop
      vertex   2.722923e+00 -5.000000e+00 4.193529e+00
      vertex   2.300325e+00 -2.000000e+01 4.439426e+00
      vertex   2.126543e+00 -5.000000e+00 4.525242e+00
    endloop
  endfacet
  facet normal -3.984010e-01 6.317521e-04 -9.172111e-01
    outer loop
      vertex   2.126543e+00 -5.000000e+00 4.525242e+00
      vertex   2.300325e+00 -2.000000e+01 4.439426e+00
      vertex   1.674398e+00 -2.000000e+01 4.711305e+00
    endloop
  endfacet
  facet normal -3.625543e-01 -6.317521e-04 -9.319624e-01
    outer loop
      vertex   2.126543e+00 -5.000000e+00 4.525242e+00
      vertex   1.674398e+00 -2.000000e+01 4.711305e+00
      vertex   1.490549e+00 -5.000000e+00 4.772658e+00
    endloop
  endfacet
  facet normal -2.697967e-01 6.317521e-04 -9.629171e-01
    outer loop
      vertex   1.490549e+00 -5.000000e+00 4.772658e+00
      vertex   1.674398e+00 -2.000000e+01 4.711305e+00
      vertex   1.017280e+00 -2.000000e+01 4.895420e+00
    endloop
  endfacet
  facet normal -2.322753e-01 -6.317521e-04 -9.726499e-01
    outer loop
      vertex   1.490549e+00 -5.000000e+00 4.772658e+00
      vertex   1.017280e+00 -2.000000e+01 4.895420e+00
      vertex   8.267892e-01 -5.000000e+00 4.931168e+00
    endloop
  endfacet
  facet normal -1.361666e-01 6.317521e-04 -9.906857e-01
    outer loop
      vertex   8.267892e-01 -5.000000e+00 4.931168e+00
      vertex   1.017280e+00 -2.000000e+01 4.895420e+00
      vertex   3.412121e-01 -2.000000e+01 4.988344e+00
    endloop
  endfacet
  facet normal -9.766936e-02 -6.317521e-04 -9.952187e-01
    outer loop
      vertex   8.267892e-01 -5.000000e+00 4.931168e+00
      vertex   3.412121e-01 -2.000000e+01 4.988344e+00
      vertex   1.476278e-01 -5.000000e+00 4.997820e+00
    endloop
  endfacet
  facet normal -2.042116e-19 6.317521e-04 -9.999998e-01
    outer loop
      vertex   1.476278e-01 -5.000000e+00 4.997820e+00
      vertex   3.412121e-01 -2.000000e+01 4.988344e+00
      vertex   -3.412121e-01 -2.000000e+01 4.988344e+00
    endloop
  endfacet
  facet normal 3.875593e-02 -6.317521e-04 -9.992485e-01
    outer loop
      vertex   1.476278e-01 -5.000000e+00 4.997820e+00
      vertex   -3.412121e-01 -2.000000e+01 4.988344e+00
      vertex   -5.342837e-01 -5.000000e+00 4.971372e+00
    endloop
  endfacet
  facet normal 1.361666e-01 6.317521e-04 -9.906857e-01
    outer loop
      vertex   -5.342837e-01 -5.000000e+00 4.971372e+00
      vertex   -3.412121e-01 -2.000000e+01 4.988344e+00
      vertex   -1.017280e+00 -2.000000e+01 4.895420e+00
    endloop
  endfacet
  facet normal 1.744593e-01 -6.317521e-04 -9.846642e-01
    outer loop
      vertex   -5.342837e-01 -5.000000e+00 4.971372e+00
      vertex   -1.017280e+00 -2.000000e+01 4.895420e+00
      vertex   -1.206242e+00 -5.000000e+00 4.852317e+00
    endloop
  endfacet
  facet normal 2.697967e-01 6.317521e-04 -9.629171e-01
    outer loop
      vertex   -1.206242e+00 -5.000000e+00 4.852317e+00
      vertex   -1.017280e+00 -2.000000e+01 4.895420e+00
      vertex   -1.674398e+00 -2.000000e+01 4.711305e+00
    endloop
  endfacet
  facet normal 3.069128e-01 -6.317521e-04 -9.517374e-01
    outer loop
      vertex   -1.206242e+00 -5.000000e+00 4.852317e+00
      vertex   -1.674398e+00 -2.000000e+01 4.711305e+00
      vertex   -1.855731e+00 -5.000000e+00 4.642872e+00
    endloop
  endfacet
  facet normal 3.984010e-01 6.317521e-04 -9.172111e-01
    outer loop
      vertex   -1.855731e+00 -5.000000e+00 4.642872e+00
      vertex   -1.674398e+00 -2.000000e+01 4.711305e+00
      vertex   -2.300325e+00 -2.000000e+01 4.439426e+00
    endloop
  endfacet
  facet normal 4.336491e-01 -6.317521e-04 -9.010816e-01
    outer loop
      vertex   -1.855731e+00 -5.000000e+00 4.642872e+00
      vertex   -2.300325e+00 -2.000000e+01 4.439426e+00
      vertex   -2.470651e+00 -5.000000e+00 4.346940e+00
    endloop
  endfacet
  facet normal 5.195838e-01 6.317521e-04 -8.544192e-01
    outer loop
      vertex   -2.470651e+00 -5.000000e+00 4.346940e+00
      vertex   -2.300325e+00 -2.000000e+01 4.439426e+00
      vertex   -2.883402e+00 -2.000000e+01 4.084849e+00
    endloop
  endfacet
  facet normal 5.523073e-01 -6.317521e-04 -8.336404e-01
    outer loop
      vertex   -2.470651e+00 -5.000000e+00 4.346940e+00
      vertex   -2.883402e+00 -2.000000e+01 4.084849e+00
      vertex   -3.039548e+00 -5.000000e+00 3.970032e+00
    endloop
  endfacet
  facet normal 6.310878e-01 6.317521e-04 -7.757111e-01
    outer loop
      vertex   -3.039548e+00 -5.000000e+00 3.970032e+00
      vertex   -2.883402e+00 -2.000000e+01 4.084849e+00
      vertex   -3.412766e+00 -2.000000e+01 3.654180e+00
    endloop
  endfacet
  facet normal 6.606771e-01 -6.317521e-04 -7.506699e-01
    outer loop
      vertex   -3.039548e+00 -5.000000e+00 3.970032e+00
      vertex   -3.412766e+00 -2.000000e+01 3.654180e+00
      vertex   -3.551823e+00 -5.000000e+00 3.519170e+00
    endloop
  endfacet
  facet normal 7.308358e-01 6.317521e-04 -6.825530e-01
    outer loop
      vertex   -3.551823e+00 -5.000000e+00 3.519170e+00
      vertex   -3.412766e+00 -2.000000e+01 3.654180e+00
      vertex   -3.878556e+00 -2.000000e+01 3.155440e+00
    endloop
  endfacet
  facet normal 7.567397e-01 -6.317521e-04 -6.537160e-01
    outer loop
      vertex   -3.551823e+00 -5.000000e+00 3.519170e+00
      vertex   -3.878556e+00 -2.000000e+01 3.155440e+00
      vertex   -3.997935e+00 -5.000000e+00 3.002752e+00
    endloop
  endfacet
  facet normal 8.169697e-01 6.317521e-04 -5.766802e-01
    outer loop
      vertex   -3.997935e+00 -5.000000e+00 3.002752e+00
      vertex   -3.878556e+00 -2.000000e+01 3.155440e+00
      vertex   -4.272097e+00 -2.000000e+01 2.597920e+00
    endloop
  endfacet
  facet normal 8.387057e-01 -6.317521e-04 -5.445845e-01
    outer loop
      vertex   -3.997935e+00 -5.000000e+00 3.002752e+00
      vertex   -4.272097e+00 -2.000000e+01 2.597920e+00
      vertex   -4.369572e+00 -5.000000e+00 2.430399e+00
    endloop
  endfacet
  facet normal 8.878850e-01 6.317521e-04 -4.600649e-01
    outer loop
      vertex   -4.369572e+00 -5.000000e+00 2.430399e+00
      vertex   -4.272097e+00 -2.000000e+01 2.597920e+00
      vertex   -4.586057e+00 -2.000000e+01 1.992005e+00
    endloop
  endfacet
  facet normal 9.050482e-01 -6.317521e-04 -4.253085e-01
    outer loop
      vertex   -4.369572e+00 -5.000000e+00 2.430399e+00
      vertex   -4.586057e+00 -2.000000e+01 1.992005e+00
      vertex   -4.659813e+00 -5.000000e+00 1.812772e+00
    endloop
  endfacet
  facet normal 9.422607e-01 6.317521e-04 -3.348795e-01
    outer loop
      vertex   -4.659813e+00 -5.000000e+00 1.812772e+00
      vertex   -4.586057e+00 -2.000000e+01 1.992005e+00
      vertex   -4.814586e+00 -2.000000e+01 1.348984e+00
    endloop
  endfacet
  facet normal 9.545314e-01 -6.317521e-04 -2.981097e-01
    outer loop
      vertex   -4.659813e+00 -5.000000e+00 1.812772e+00
      vertex   -4.814586e+00 -2.000000e+01 1.348984e+00
      vertex   -4.863250e+00 -5.000000e+00 1.161377e+00
    endloop
  endfacet
  facet normal 9.790839e-01 6.317521e-04 -2.034560e-01
    outer loop
      vertex   -4.863250e+00 -5.000000e+00 1.161377e+00
      vertex   -4.814586e+00 -2.000000e+01 1.348984e+00
      vertex   -4.953430e+00 -2.000000e+01 6.808332e-01
    endloop
  endfacet
  facet normal 9.862334e-01 -6.317521e-04 -1.653578e-01
    outer loop
      vertex   -4.863250e+00 -5.000000e+00 1.161377e+00
      vertex   -4.953430e+00 -2.000000e+01 6.808332e-01
      vertex   -4.976095e+00 -5.000000e+00 4.883469e-01
    endloop
  endfacet
  facet normal 9.976686e-01 6.317521e-04 -6.824240e-02
    outer loop
      vertex   -4.976095e+00 -5.000000e+00 4.883469e-01
      vertex   -4.953430e+00 -2.000000e+01 6.808332e-01
      vertex   -5.000000e+00 -2.000000e+01 -6.123234e-16
    endloop
  endfacet
  facet normal 9.995638e-01 -6.317521e-04 -2.952554e-02
    outer loop
      vertex   -4.976095e+00 -5.000000e+00 4.883469e-01
      vertex   -5.000000e+00 -2.000000e+01 -6.123234e-16
      vertex   -4.996244e+00 -5.000000e+00 -1.937797e-01
    endloop
  endfacet
  facet normal 9.976686e-01 6.317521e-04 6.824240e-02
    outer loop
      vertex   -4.996244e+00 -5.000000e+00 -1.937797e-01
      vertex   -5.000000e+00 -2.000000e+01 -6.123234e-16
      vertex   -4.953430e+00 -2.000000e+01 -6.808332e-01
    endloop
  endfacet
  facet normal 9.942742e-01 -6.317521e-04 1.068567e-01
    outer loop
      vertex   -4.996244e+00 -5.000000e+00 -1.937797e-01
      vertex   -4.953430e+00 -2.000000e+01 -6.808332e-01
      vertex   -4.923322e+00 -5.000000e+00 -8.722966e-01
    endloop
  endfacet
  facet normal 9.790839e-01 6.317521e-04 2.034560e-01
    outer loop
      vertex   -4.923322e+00 -5.000000e+00 -8.722966e-01
      vertex   -4.953430e+00 -2.000000e+01 -6.808332e-01
      vertex   -4.814586e+00 -2.000000e+01 -1.348984e+00
    endloop
  endfacet
  facet normal 9.704632e-01 -6.317521e-04 2.412484e-01
    outer loop
      vertex   -4.923322e+00 -5.000000e+00 -8.722966e-01
      vertex   -4.814586e+00 -2.000000e+01 -1.348984e+00
      vertex   -4.758688e+00 -5.000000e+00 -1.534564e+00
    endloop
  endfacet
  facet normal 9.422607e-01 6.317521e-04 3.348795e-01
    outer loop
      vertex   -4.758688e+00 -5.000000e+00 -1.534564e+00
      vertex   -4.814586e+00 -2.000000e+01 -1.348984e+00
      vertex   -4.586057e+00 -2.000000e+01 -1.992005e+00
    endloop
  endfacet
  facet normal 9.285742e-01 -6.317521e-04 3.711462e-01
    outer loop
      vertex   -4.758688e+00 -5.000000e+00 -1.534564e+00
      vertex   -4.586057e+00 -2.000000e+01 -1.992005e+00
      vertex   -4.505409e+00 -5.000000e+00 -2.168246e+00
    endloop
  endfacet
  facet normal 8.878850e-01 6.317521e-04 4.600649e-01
    outer loop
      vertex   -4.505409e+00 -5.000000e+00 -2.168246e+00
      vertex   -4.586057e+00 -2.000000e+01 -1.992005e+00
      vertex   -4.272097e+00 -2.000000e+01 -2.597920e+00
    endloop
  endfacet
  facet normal 8.693877e-01 -6.317521e-04 4.941301e-01
    outer loop
      vertex   -4.505409e+00 -5.000000e+00 -2.168246e+00
      vertex   -4.272097e+00 -2.000000e+01 -2.597920e+00
      vertex   -4.168203e+00 -5.000000e+00 -2.761537e+00
    endloop
  endfacet
  facet normal 8.169697e-01 6.317521e-04 5.766802e-01
    outer loop
      vertex   -4.168203e+00 -5.000000e+00 -2.761537e+00
      vertex   -4.272097e+00 -2.000000e+01 -2.597920e+00
      vertex   -3.878556e+00 -2.000000e+01 -3.155440e+00
    endloop
  endfacet
  facet normal 7.940062e-01 -6.317521e-04 6.079094e-01
    outer loop
      vertex   -4.168203e+00 -5.000000e+00 -2.761537e+00
      vertex   -3.878556e+00 -2.000000e+01 -3.155440e+00
      vertex   -3.753350e+00 -5.000000e+00 -3.303386e+00
    endloop
  endfacet
  facet normal 7.308358e-01 6.317521e-04 6.825530e-01
    outer loop
      vertex   -3.753350e+00 -5.000000e+00 -3.303386e+00
      vertex   -3.878556e+00 -2.000000e+01 -3.155440e+00
      vertex   -3.412766e+00 -2.000000e+01 -3.654180e+00
    endloop
  endfacet
  facet normal 7.038338e-01 -6.317521e-04 7.103644e-01
    outer loop
      vertex   -3.753350e+00 -5.000000e+00 -3.303386e+00
      vertex   -3.412766e+00 -2.000000e+01 -3.654180e+00
      vertex   -3.268581e+00 -5.000000e+00 -3.783699e+00
    endloop
  endfacet
  facet normal 6.310878e-01 6.317521e-04 7.757111e-01
    outer loop
      vertex   -3.268581e+00 -5.000000e+00 -3.783699e+00
      vertex   -3.412766e+00 -2.000000e+01 -3.654180e+00
      vertex   -2.883402e+00 -2.000000e+01 -4.084849e+00
    endloop
  endfacet
  facet normal 6.005503e-01 -6.317521e-04 7.995868e-01
    outer loop
      vertex   -3.268581e+00 -5.000000e+00 -3.783699e+00
      vertex   -2.883402e+00 -2.000000e+01 -4.084849e+00
      vertex   -2.722923e+00 -5.000000e+00 -4.193529e+00
    endloop
  endfacet
  facet normal 5.195838e-01 6.317521e-04 8.544192e-01
    outer loop
      vertex   -2.722923e+00 -5.000000e+00 -4.193529e+00
      vertex   -2.883402e+00 -2.000000e+01 -4.084849e+00
      vertex   -2.300325e+00 -2.000000e+01 -4.439426e+00
    endloop
  endfacet
  facet normal 4.860797e-01 -6.317521e-04 8.739143e-01
    outer loop
      vertex   -2.722923e+00 -5.000000e+00 -4.193529e+00
      vertex   -2.300325e+00 -2.000000e+01 -4.439426e+00
      vertex   -2.126543e+00 -5.000000e+00 -4.525242e+00
    endloop
  endfacet
  facet normal 3.984010e-01 6.317521e-04 9.172111e-01
    outer loop
      vertex   -2.126543e+00 -5.000000e+00 -4.525242e+00
      vertex   -2.300325e+00 -2.000000e+01 -4.439426e+00
      vertex   -1.674398e+00 -2.000000e+01 -4.711305e+00
    endloop
  endfacet
  facet normal 3.625543e-01 -6.317521e-04 9.319624e-01
    outer loop
      vertex   -2.126543e+00 -5.000000e+00 -4.525242e+00
      vertex   -1.674398e+00 -2.000000e+01 -4.711305e+00
      vertex   -1.490549e+00 -5.000000e+00 -4.772658e+00
    endloop
  endfacet
  facet normal 2.697967e-01 6.317521e-04 9.629171e-01
    outer loop
      vertex   -1.490549e+00 -5.000000e+00 -4.772658e+00
      vertex   -1.674398e+00 -2.000000e+01 -4.711305e+00
      vertex   -1.017280e+00 -2.000000e+01 -4.895420e+00
    endloop
  endfacet
  facet normal 2.322753e-01 -6.317521e-04 9.726499e-01
    outer loop
      vertex   -1.490549e+00 -5.000000e+00 -4.772658e+00
      vertex   -1.017280e+00 -2.000000e+01 -4.895420e+00
      vertex   -8.267892e-01 -5.000000e+00 -4.931168e+00
    endloop
  endfacet
  facet normal 1.361666e-01 6.317521e-04 9.906857e-01
    outer loop
      vertex   -8.267892e-01 -5.000000e+00 -4.931168e+00
      vertex   -1.017280e+00 -2.000000e+01 -4.895420e+00
      vertex   -3.412121e-01 -2.000000e+01 -4.988344e+00
    endloop
  endfacet
  facet normal 9.766936e-02 -6.317521e-04 9.952187e-01
    outer loop
      vertex   -8.267892e-01 -5.000000e+00 -4.931168e+00
      vertex   -3.412121e-01 -2.000000e+01 -4.988344e+00
      vertex   -1.476278e-01 -5.000000e+00 -4.997820e+00
    endloop
  endfacet
  facet normal 2.042116e-19 6.317521e-04 9.999998e-01
    outer loop
      vertex   -1.476278e-01 -5.000000e+00 -4.997820e+00
      vertex   -3.412121e-01 -2.000000e+01 -4.988344e+00
      vertex   3.412121e-01 -2.000000e+01 -4.988344e+00
    endloop
  endfacet
  facet normal -3.875593e-02 -6.317521e-04 9.992485e-01
    outer loop
      vertex   -1.476278e-01 -5.000000e+00 -4.997820e+00
      vertex   3.412121e-01 -2.000000e+01 -4.988344e+00
      vertex   5.342837e-01 -5.000000e+00 -4.971372e+00
    endloop
  endfacet
  facet normal -1.361666e-01 6.317521e-04 9.906857e-01
    outer loop
      vertex   5.342837e-01 -5.000000e+00 -4.971372e+00
      vertex   3.412121e-01 -2.000000e+01 -4.988344e+00
      vertex   1.017280e+00 -2.000000e+01 -4.895420e+00
    endloop
  endfacet
  facet normal -1.744593e-01 -6.317521e-04 9.846642e-01
    outer loop
      vertex   5.342837e-01 -5.000000e+00 -4.971372e+00
      vertex   1.017280e+00 -2.000000e+01 -4.895420e+00
      vertex   1.206242e+00 -5.000000e+00 -4.852317e+00
    endloop
  endfacet
  facet normal -2.697967e-01 6.317521e-04 9.629171e-01
    outer loop
      vertex   1.206242e+00 -5.000000e+00 -4.852317e+00
      vertex   1.017280e+00 -2.000000e+01 -4.895420e+00
      vertex   1.674398e+00 -2.000000e+01 -4.711305e+00
    endloop
  endfacet
  facet normal -3.069128e-01 -6.317521e-04 9.517374e-01
    outer loop
      vertex   1.206242e+00 -5.000000e+00 -4.852317e+00
      vertex   1.674398e+00 -2.000000e+01 -4.711305e+00
      vertex   1.855731e+00 -5.000000e+00 -4.642872e+00
    endloop
  endfacet
  facet normal -3.984010e-01 6.317521e-04 9.172111e-01
    outer loop
      vertex   1.855731e+00 -5.000000e+00 -4.642872e+00
      vertex   1.674398e+00 -2.000000e+01 -4.711305e+00
      vertex   2.300325e+00 -2.000000e+01 -4.439426e+00
    endloop
  endfacet
  facet normal -4.336491e-01 -6.317521e-04 9.010816e-01
    outer loop
      vertex   1.855731e+00 -5.000000e+00 -4.642872e+00
      vertex   2.300325e+00 -2.000000e+01 -4.439426e+00
      vertex   2.470651e+00 -5.000000e+00 -4.346940e+00
    endloop
  endfacet
  facet normal -5.195838e-01 6.317521e-04 8.544192e-01
    outer loop
      vertex   2.470651e+00 -5.000000e+00 -4.346940e+00
      vertex   2.300325e+00 -2.000000e+01 -4.439426e+00
      vertex   2.883402e+00 -2.000000e+01 -4.084849e+00
    endloop
  endfacet
  facet normal -5.523073e-01 -6.317521e-04 8.336404e-01
    outer loop
      vertex   2.470651e+00 -5.000000e+00 -4.346940e+00
      vertex   2.883402e+00 -2.000000e+01 -4.084849e+00
      vertex   3.039548e+00 -5.000000e+00 -3.970032e+00
    endloop
  endfacet
  facet normal -6.310878e-01 6.317521e-04 7.757111e-01
    outer loop
      vertex   3.039548e+00 -5.000000e+00 -3.970032e+00
      vertex   2.883402e+00 -2.000000e+01 -4.084849e+00
      vertex   3.412766e+00 -2.000000e+01 -3.654180e+00
    endloop
  endfacet
  facet normal -6.606771e-01 -6.317521e-04 7.506699e-01
    outer loop
      vertex   3.039548e+00 -5.000000e+00 -3.970032e+00
      vertex   3.412766e+00 -2.000000e+01 -3.654180e+00
      vertex   3.551823e+00 -5.000000e+00 -3.519170e+00
    endloop
  endfacet
  facet normal -7.308358e-01 6.317521e-04 6.825530e-01
    outer loop
      vertex   3.551823e+00 -5.000000e+00 -3.519170e+00
      vertex   3.412766e+00 -2.000000e+01 -3.654180e+00
      vertex   3.878556e+00 -2.000000e+01 -3.155440e+00
    endloop
  endfacet
  facet normal -7.567397e-01 -6.317521e-04 6.537160e-01
    outer loop
      vertex   3.551823e+00 -5.000000e+00 -3.519170e+00
      vertex   3.878556e+00 -2.000000e+01 -3.155440e+00
      vertex   3.997935e+00 -5.000000e+00 -3.002752e+00
    endloop
  endfacet
  facet normal -8.169697e-01 6.317521e-04 5.766802e-01
    outer loop
      vertex   3.997935e+00 -5.000000e+00 -3.002752e+00
      vertex   3.878556e+00 -2.000000e+01 -3.155440e+00
      vertex   4.272097e+00 -2.000000e+01 -2.597920e+00
    endloop
  endfacet
  facet normal -8.387057e-01 -6.317521e-04 5.445845e-01
    outer loop
      vertex   3.997935e+00 -5.000000e+00 -3.002752e+00
      vertex   4.272097e+00 -2.000000e+01 -2.597920e+00
      vertex   4.369572e+00 -5.000000e+00 -2.430399e+00
    endloop
  endfacet
  facet normal -8.878850e-01 6.317521e-04 4.600649e-01
    outer loop
      vertex   4.369572e+00 -5.000000e+00 -2.430399e+00
      vertex   4.272097e+00 -2.000000e+01 -2.597920e+00
      vertex   4.586057e+00 -2.000000e+01 -1.992005e+00
    endloop
  endfacet
  facet normal 0.000000e+00 1.000000e+00 0.000000e+00
    outer loop
      vertex   -8.660254e+00 5.000000e+00 5.000000e+00
      vertex   -2.500000e+01 5.000000e+00 5.000000e+00
      vertex   -2.020726e+01 5.000000e+00 2.500000e+01
    endloop
  endfacet
  facet normal -1.554555e-08 1.000000e+00 3.725290e-09
    outer loop
      vertex   -2.020726e+01 5.000000e+00 2.500000e+01
      vertex   -2.500000e+01 5.000000e+00 5.000000e+00
      vertex   -2.500000e+01 5.000000e+00 2.500000e+01
    endloop
  endfacet
  facet normal -0.000000e+00 0.000000e+00 1.000000e+00
    outer loop
      vertex   -2.500000e+01 5.000000e+00 -5.000000e+00
      vertex   -2.500000e+01 -5.000000e+00 -5.000000e+00
      vertex   -8.660254e+00 5.000000e+00 -5.000000e+00
    endloop
  endfacet
  facet normal 0.000000e+00 0.000000e+00 1.000000e+00
    outer loop
      vertex   -8.660254e+00 5.000000e+00 -5.000000e+00
      vertex   -2.500000e+01 -5.000000e+00 -5.000000e+00
      vertex   -8.660254e+00 -5.000000e+00 -5.000000e+00
    endloop
  endfacet
  facet normal -0.000000e+00 -0.000000e+00 -1.000000e+00
    outer loop
      vertex   -8.660254e+00 5.000000e+00 5.000000e+00
      vertex   -8.660254e+00 -5.000000e+00 5.000000e+00
      vertex   -2.500000e+01 5.000000e+00 5.000000e+00
    endloop
  endfacet
  facet normal 0.000000e+00 0.000000e+00 -1.000000e+00
    outer loop
      vertex   -2.500000e+01 5.000000e+00 5.000000e+00
      vertex   -8.660254e+00 -5.000000e+00 5.000000e+00
      vertex   -2.500000e+01 -5.000000e+00 5.000000e+00
    endloop
  endfacet
  facet normal -1.000000e+00 0.000000e+00 0.000000e+00
    outer loop
      vertex   -2.500000e+01 5.000000e+00 5.000000e+00
      vertex   -2.500000e+01 -5.000000e+00 5.000000e+00
      vertex   -2.500000e+01 5.000000e+00 2.500000e+01
    endloop
  endfacet
  facet normal -1.000000e+00 -0.000000e+00 0.000000e+00
    outer loop
      vertex   -2.500000e+01 5.000000e+00 2.500000e+01
      vertex   -2.500000e+01 -5.000000e+00 5.000000e+00
      vertex   -2.500000e+01 -2.000000e+01 2.500000e+01
    endloop
  endfacet
  facet normal -1.000000e+00 0.000000e+00 0.000000e+00
    outer loop
      vertex   -2.500000e+01 -2.000000e+01 2.500000e+01
      vertex   -2.500000e+01 -5.000000e+00 5.000000e+00
      vertex   -2.500000e+01 -5.000000e+00 -5.000000e+00
    endloop
  endfacet
  facet normal -1.000000e+00 0.000000e+00 0.000000e+00
    outer loop
      vertex   -2.500000e+01 -2.000000e+01 2.500000e+01
      vertex   -2.500000e+01 -5.000000e+00 -5.000000e+00
      vertex   -2.500000e+01 -2.000000e+01 -2.500000e+01
    endloop
  endfacet
  facet normal -1.000000e+00 0.000000e+00 0.000000e+00
    outer loop
      vertex   -2.500000e+01 -2.000000e+01 -2.500000e+01
      vertex   -2.500000e+01 -5.000000e+00 -5.000000e+00
      vertex   -2.500000e+01 5.000000e+00 -2.500000e+01
    endloop
  endfacet
  facet normal -1.000000e+00 0.000000e+00 0.000000e+00
    outer loop
      vertex   -2.500000e+01 5.000000e+00 -2.500000e+01
      vertex   -2.500000e+01 -5.000000e+00 -5.000000e+00
      vertex   -2.500000e+01 5.000000e+00 -5.000000e+00
    endloop
  endfacet
  facet normal 0.000000e+00 1.000000e+00 0.000000e+00
    outer loop
      vertex   -8.660254e+00 5.000000e+00 -5.000000e+00
      vertex   -2.020726e+01 5.000000e+00 -2.500000e+01
      vertex   -2.500000e+01 5.000000e+00 -5.000000e+00
    endloop
  endfacet
  facet normal -1.554555e-08 1.000000e+00 -3.725290e-09
    outer loop
      vertex   -2.500000e+01 5.000000e+00 -5.000000e+00
      vertex   -2.020726e+01 5.000000e+00 -2.500000e+01
      vertex   -2.500000e+01 5.000000e+00 -2.500000e+01
    endloop
  endfacet
  facet normal 8.660254e-01 0.000000e+00 -5.000000e-01
    outer loop
      vertex   -8.660254e+00 5.000000e+00 -5.000000e+00
      vertex   -8.660254e+00 -5.000000e+00 -5.000000e+00
      vertex   -2.020726e+01 5.000000e+00 -2.500000e+01
    endloop
  endfacet
  facet normal 8.660254e-01 0.000000e+00 -5.000000e-01
    outer loop
      vertex   -2.020726e+01 5.000000e+00 -2.500000e+01
      vertex   -8.660254e+00 -5.000000e+00 -5.000000e+00
      vertex   -2.020726e+01 -5.000000e+00 -2.500000e+01
    endloop
  endfacet
  facet normal -8.660254e-01 1.538370e-16 5.000000e-01
    outer loop
      vertex   -8.660254e+00 5.000000e+00 -2.500000e+01
      vertex   -8.660254e+00 -5.000000e+00 -2.500000e+01
      vertex   -2.359224e-15 5.000000e+00 -1.000000e+01
    endloop
  endfacet
  facet normal -8.660254e-01 -1.934881e-17 5.000000e-01
    outer loop
      vertex   -2.359224e-15 5.000000e+00 -1.000000e+01
      vertex   -8.660254e+00 -5.000000e+00 -2.500000e+01
      vertex   -1.110223e-15 -5.000000e+00 -1.000000e+01
    endloop
  endfacet
  facet normal 0.000000e+00 -0.000000e+00 -1.000000e+00
    outer loop
      vertex   -2.020726e+01 5.000000e+00 -2.500000e+01
      vertex   -2.020726e+01 -5.000000e+00 -2.500000e+01
      vertex   -2.500000e+01 5.000000e+00 -2.500000e+01
    endloop
  endfacet
  facet normal 0.000000e+00 0.000000e+00 -1.000000e+00
    outer loop
      vertex   -2.500000e+01 5.000000e+00 -2.500000e+01
      vertex   -2.020726e+01 -5.000000e+00 -2.500000e+01
      vertex   -2.500000e+01 -2.000000e+01 -2.500000e+01
    endloop
  endfacet
  facet normal 0.000000e+00 0.000000e+00 -1.000000e+00
    outer loop
      vertex   -2.500000e+01 -2.000000e+01 -2.500000e+01
      vertex   -2.020726e+01 -5.000000e+00 -2.500000e+01
      vertex   -8.660254e+00 -5.000000e+00 -2.500000e+01
    endloop
  endfacet
  facet normal 0.000000e+00 0.000000e+00 -1.000000e+00
    outer loop
      vertex   -2.500000e+01 -2.000000e+01 -2.500000e+01
      vertex   -8.660254e+00 -5.000000e+00 -2.500000e+01
      vertex   8.660254e+00 -5.000000e+00 -2.500000e+01
    endloop
  endfacet
  facet normal 0.000000e+00 0.000000e+00 -1.000000e+00
    outer loop
      vertex   8.660254e+00 -5.000000e+00 -2.500000e+01
      vertex   -8.660254e+00 -5.000000e+00 -2.500000e+01
      vertex   -8.660254e+00 5.000000e+00 -2.500000e+01
    endloop
  endfacet
  facet normal 0.000000e+00 0.000000e+00 -1.000000e+00
    outer loop
      vertex   8.660254e+00 -5.000000e+00 -2.500000e+01
      vertex   -8.660254e+00 5.000000e+00 -2.500000e+01
      vertex   8.660254e+00 5.000000e+00 -2.500000e+01
    endloop
  endfacet
  facet normal 0.000000e+00 0.000000e+00 -1.000000e+00
    outer loop
      vertex   -2.500000e+01 -2.000000e+01 -2.500000e+01
      vertex   8.660254e+00 -5.000000e+00 -2.500000e+01
      vertex   2.500000e+01 -2.000000e+01 -2.500000e+01
    endloop
  endfacet
  facet normal 0.000000e+00 0.000000e+00 -1.000000e+00
    outer loop
      vertex   2.500000e+01 -2.000000e+01 -2.500000e+01
      vertex   8.660254e+00 -5.000000e+00 -2.500000e+01
      vertex   2.020726e+01 -5.000000e+00 -2.500000e+01
    endloop
  endfacet
  facet normal 0.000000e+00 0.000000e+00 -1.000000e+00
    outer loop
      vertex   2.500000e+01 -2.000000e+01 -2.500000e+01
      vertex   2.020726e+01 -5.000000e+00 -2.500000e+01
      vertex   2.500000e+01 5.000000e+00 -2.500000e+01
    endloop
  endfacet
  facet normal -0.000000e+00 0.000000e+00 -1.000000e+00
    outer loop
      vertex   2.500000e+01 5.000000e+00 -2.500000e+01
      vertex   2.020726e+01 -5.000000e+00 -2.500000e+01
      vertex   2.020726e+01 5.000000e+00 -2.500000e+01
    endloop
  endfacet
  facet normal -4.301595e-09 1.000000e+00 2.483527e-09
    outer loop
      vertex   -8.660254e+00 5.000000e+00 -2.500000e+01
      vertex   -2.359224e-15 5.000000e+00 -1.000000e+01
      vertex   8.660254e+00 5.000000e+00 -2.500000e+01
    endloop
  endfacet
  facet normal -0.000000e+00 1.000000e+00 0.000000e+00
    outer loop
      vertex   4.369572e+00 -5.000000e+00 -2.430399e+00
      vertex   4.659813e+00 -5.000000e+00 -1.812772e+00
      vertex   8.660254e+00 -5.000000e+00 -5.000000e+00
    endloop
  endfacet
  facet normal 0.000000e+00 1.000000e+00 0.000000e+00
    outer loop
      vertex   8.660254e+00 -5.000000e+00 -5.000000e+00
      vertex   4.659813e+00 -5.000000e+00 -1.812772e+00
      vertex   4.863250e+00 -5.000000e+00 -1.161377e+00
    endloop
  endfacet
  facet normal 0.000000e+00 1.000000e+00 0.000000e+00
    outer loop
      vertex   8.660254e+00 -5.000000e+00 -5.000000e+00
      vertex   4.863250e+00 -5.000000e+00 -1.161377e+00
      vertex   4.976095e+00 -5.000000e+00 -4.883469e-01
    endloop
  endfacet
  facet normal -0.000000e+00 1.000000e+00 0.000000e+00
    outer loop
      vertex   4.976095e+00 -5.000000e+00 -4.883469e-01
      vertex   4.996244e+00 -5.000000e+00 1.937797e-01
      vertex   8.660254e+00 -5.000000e+00 -5.000000e+00
    endloop
  endfacet
  facet normal 0.000000e+00 1.000000e+00 0.000000e+00
    outer loop
      vertex   8.660254e+00 -5.000000e+00 -5.000000e+00
      vertex   4.996244e+00 -5.000000e+00 1.937797e-01
      vertex   8.660254e+00 -5.000000e+00 5.000000e+00
    endloop
  endfacet
  facet normal 0.000000e+00 1.000000e+00 -0.000000e+00
    outer loop
      vertex   8.660254e+00 -5.000000e+00 -5.000000e+00
      vertex   8.660254e+00 -5.000000e+00 5.000000e+00
      vertex   2.500000e+01 -5.000000e+00 -5.000000e+00
    endloop
  endfacet
  facet normal 0.000000e+00 1.000000e+00 -0.000000e+00
    outer loop
      vertex   2.500000e+01 -5.000000e+00 -5.000000e+00
      vertex   8.660254e+00 -5.000000e+00 5.000000e+00
      vertex   2.500000e+01 -5.000000e+00 5.000000e+00
    endloop
  endfacet
  facet normal 0.000000e+00 1.000000e+00 -0.000000e+00
    outer loop
      vertex   4.996244e+00 -5.000000e+00 1.937797e-01
      vertex   4.923322e+00 -5.000000e+00 8.722966e-01
      vertex   8.660254e+00 -5.000000e+00 5.000000e+00
    endloop
  endfacet
  facet normal 0.000000e+00 1.000000e+00 0.000000e+00
    outer loop
      vertex   8.660254e+00 -5.000000e+00 5.000000e+00
      vertex   4.923322e+00 -5.000000e+00 8.722966e-01
      vertex   4.758688e+00 -5.000000e+00 1.534564e+00
    endloop
  endfacet
  facet normal 0.000000e+00 1.000000e+00 0.000000e+00
    outer loop
      vertex   8.660254e+00 -5.000000e+00 5.000000e+00
      vertex   4.758688e+00 -5.000000e+00 1.534564e+00
      vertex   4.505409e+00 -5.000000e+00 2.168246e+00
    endloop
  endfacet
  facet normal 0.000000e+00 1.000000e+00 -0.000000e+00
    outer loop
      vertex   4.505409e+00 -5.000000e+00 2.168246e+00
      vertex   4.168203e+00 -5.000000e+00 2.761537e+00
      vertex   8.660254e+00 -5.000000e+00 5.000000e+00
    endloop
  endfacet
  facet normal 0.000000e+00 1.000000e+00 0.000000e+00
    outer loop
      vertex   8.660254e+00 -5.000000e+00 5.000000e+00
      vertex   4.168203e+00 -5.000000e+00 2.761537e+00
      vertex   3.753350e+00 -5.000000e+00 3.303386e+00
    endloop
  endfacet
  facet normal 0.000000e+00 1.000000e+00 0.000000e+00
    outer loop
      vertex   8.660254e+00 -5.000000e+00 5.000000e+00
      vertex   3.753350e+00 -5.000000e+00 3.303386e+00
      vertex   3.268581e+00 -5.000000e+00 3.783699e+00
    endloop
  endfacet
  facet normal 0.000000e+00 1.000000e+00 -0.000000e+00
    outer loop
      vertex   3.268581e+00 -5.000000e+00 3.783699e+00
      vertex   2.722923e+00 -5.000000e+00 4.193529e+00
      vertex   8.660254e+00 -5.000000e+00 5.000000e+00
    endloop
  endfacet
  facet normal 0.000000e+00 1.000000e+00 0.000000e+00
    outer loop
      vertex   8.660254e+00 -5.000000e+00 5.000000e+00
      vertex   2.722923e+00 -5.000000e+00 4.193529e+00
      vertex   -6.661338e-15 -5.000000e+00 1.000000e+01
    endloop
  endfacet
  facet normal 0.000000e+00 1.000000e+00 0.000000e+00
    outer loop
      vertex   8.660254e+00 -5.000000e+00 5.000000e+00
      vertex   -6.661338e-15 -5.000000e+00 1.000000e+01
      vertex   8.660254e+00 -5.000000e+00 2.500000e+01
    endloop
  endfacet
  facet normal 0.000000e+00 1.000000e+00 0.000000e+00
    outer loop
      vertex   2.722923e+00 -5.000000e+00 4.193529e+00
      vertex   2.126543e+00 -5.000000e+00 4.525242e+00
      vertex   -6.661338e-15 -5.000000e+00 1.000000e+01
    endloop
  endfacet
  facet normal 0.000000e+00 1.000000e+00 0.000000e+00
    outer loop
      vertex   -6.661338e-15 -5.000000e+00 1.000000e+01
      vertex   2.126543e+00 -5.000000e+00 4.525242e+00
      vertex   1.490549e+00 -5.000000e+00 4.772658e+00
    endloop
  endfacet
  facet normal 0.000000e+00 1.000000e+00 0.000000e+00
    outer loop
      vertex   -6.661338e-15 -5.000000e+00 1.000000e+01
      vertex   1.490549e+00 -5.000000e+00 4.772658e+00
      vertex   8.267892e-01 -5.000000e+00 4.931168e+00
    endloop
  endfacet
  facet normal 0.000000e+00 1.000000e+00 0.000000e+00
    outer loop
      vertex   8.267892e-01 -5.000000e+00 4.931168e+00
      vertex   1.476278e-01 -5.000000e+00 4.997820e+00
      vertex   -6.661338e-15 -5.000000e+00 1.000000e+01
    endloop
  endfacet
  facet normal 0.000000e+00 1.000000e+00 0.000000e+00
    outer loop
      vertex   -6.661338e-15 -5.000000e+00 1.000000e+01
      vertex   1.476278e-01 -5.000000e+00 4.997820e+00
      vertex   -5.342837e-01 -5.000000e+00 4.971372e+00
    endloop
  endfacet
  facet normal 0.000000e+00 1.000000e+00 0.000000e+00
    outer loop
      vertex   -6.661338e-15 -5.000000e+00 1.000000e+01
      vertex   -5.342837e-01 -5.000000e+00 4.971372e+00
      vertex   -1.206242e+00 -5.000000e+00 4.852317e+00
    endloop
  endfacet
  facet normal 0.000000e+00 1.000000e+00 -0.000000e+00
    outer loop
      vertex   -1.206242e+00 -5.000000e+00 4.852317e+00
      vertex   -1.855731e+00 -5.000000e+00 4.642872e+00
      vertex   -6.661338e-15 -5.000000e+00 1.000000e+01
    endloop
  endfacet
  facet normal 0.000000e+00 1.000000e+00 0.000000e+00
    outer loop
      vertex   -6.661338e-15 -5.000000e+00 1.000000e+01
      vertex   -1.855731e+00 -5.000000e+00 4.642872e+00
      vertex   -2.470651e+00 -5.000000e+00 4.346940e+00
    endloop
  endfacet
  facet normal 0.000000e+00 1.000000e+00 0.000000e+00
    outer loop
      vertex   -6.661338e-15 -5.000000e+00 1.000000e+01
      vertex   -2.470651e+00 -5.000000e+00 4.346940e+00
      vertex   -8.660254e+00 -5.000000e+00 5.000000e+00
    endloop
  endfacet
  facet normal 0.000000e+00 1.000000e+00 0.000000e+00
    outer loop
      vertex   -8.660254e+00 -5.000000e+00 5.000000e+00
      vertex   -2.470651e+00 -5.000000e+00 4.346940e+00
      vertex   -3.039548e+00 -5.000000e+00 3.970032e+00
    endloop
  endfacet
  facet normal 0.000000e+00 1.000000e+00 0.000000e+00
    outer loop
      vertex   -8.660254e+00 -5.000000e+00 5.000000e+00
      vertex   -3.039548e+00 -5.000000e+00 3.970032e+00
      vertex   -3.551823e+00 -5.000000e+00 3.519170e+00
    endloop
  endfacet
  facet normal 0.000000e+00 1.000000e+00 0.000000e+00
    outer loop
      vertex   -3.551823e+00 -5.000000e+00 3.519170e+00
      vertex   -3.997935e+00 -5.000000e+00 3.002752e+00
      vertex   -8.660254e+00 -5.000000e+00 5.000000e+00
    endloop
  endfacet
  facet normal 0.000000e+00 1.000000e+00 0.000000e+00
    outer loop
      vertex   -8.660254e+00 -5.000000e+00 5.000000e+00
      vertex   -3.997935e+00 -5.000000e+00 3.002752e+00
      vertex   -4.369572e+00 -5.000000e+00 2.430399e+00
    endloop
  endfacet
  facet normal 0.000000e+00 1.000000e+00 0.000000e+00
    outer loop
      vertex   -8.660254e+00 -5.000000e+00 5.000000e+00
      vertex   -4.369572e+00 -5.000000e+00 2.430399e+00
      vertex   -4.659813e+00 -5.000000e+00 1.812772e+00
    endloop
  endfacet
  facet normal 0.000000e+00 1.000000e+00 0.000000e+00
    outer loop
      vertex   -4.659813e+00 -5.000000e+00 1.812772e+00
      vertex   -4.863250e+00 -5.000000e+00 1.161377e+00
      vertex   -8.660254e+00 -5.000000e+00 5.000000e+00
    endloop
  endfacet
  facet normal 0.000000e+00 1.000000e+00 0.000000e+00
    outer loop
      vertex   -8.660254e+00 -5.000000e+00 5.000000e+00
      vertex   -4.863250e+00 -5.000000e+00 1.161377e+00
      vertex   -4.976095e+00 -5.000000e+00 4.883469e-01
    endloop
  endfacet
  facet normal 0.000000e+00 1.000000e+00 0.000000e+00
    outer loop
      vertex   -8.660254e+00 -5.000000e+00 5.000000e+00
      vertex   -4.976095e+00 -5.000000e+00 4.883469e-01
      vertex   -4.996244e+00 -5.000000e+00 -1.937797e-01
    endloop
  endfacet
  facet normal 0.000000e+00 1.000000e+00 0.000000e+00
    outer loop
      vertex   -8.660254e+00 -5.000000e+00 5.000000e+00
      vertex   -4.996244e+00 -5.000000e+00 -1.937797e-01
      vertex   -8.660254e+00 -5.000000e+00 -5.000000e+00
    endloop
  endfacet
  facet normal 0.000000e+00 1.000000e+00 0.000000e+00
    outer loop
      vertex   -8.660254e+00 -5.000000e+00 -5.000000e+00
      vertex   -4.996244e+00 -5.000000e+00 -1.937797e-01
      vertex   -4.923322e+00 -5.000000e+00 -8.722966e-01
    endloop
  endfacet
  facet normal 0.000000e+00 1.000000e+00 0.000000e+00
    outer loop
      vertex   -8.660254e+00 -5.000000e+00 -5.000000e+00
      vertex   -4.923322e+00 -5.000000e+00 -8.722966e-01
      vertex   -4.758688e+00 -5.000000e+00 -1.534564e+00
    endloop
  endfacet
  facet normal 0.000000e+00 1.000000e+00 0.000000e+00
    outer loop
      vertex   -4.758688e+00 -5.000000e+00 -1.534564e+00
      vertex   -4.505409e+00 -5.000000e+00 -2.168246e+00
      vertex   -8.660254e+00 -5.000000e+00 -5.000000e+00
    endloop
  endfacet
  facet normal 0.000000e+00 1.000000e+00 0.000000e+00
    outer loop
      vertex   -8.660254e+00 -5.000000e+00 -5.000000e+00
      vertex   -4.505409e+00 -5.000000e+00 -2.168246e+00
      vertex   -4.168203e+00 -5.000000e+00 -2.761537e+00
    endloop
  endfacet
  facet normal 0.000000e+00 1.000000e+00 0.000000e+00
    outer loop
      vertex   -8.660254e+00 -5.000000e+00 -5.000000e+00
      vertex   -4.168203e+00 -5.000000e+00 -2.761537e+00
      vertex   -3.753350e+00 -5.000000e+00 -3.303386e+00
    endloop
  endfacet
  facet normal 0.000000e+00 1.000000e+00 0.000000e+00
    outer loop
      vertex   -3.753350e+00 -5.000000e+00 -3.303386e+00
      vertex   -3.268581e+00 -5.000000e+00 -3.783699e+00
      vertex   -8.660254e+00 -5.000000e+00 -5.000000e+00
    endloop
  endfacet
  facet normal 0.000000e+00 1.000000e+00 0.000000e+00
    outer loop
      vertex   -8.660254e+00 -5.000000e+00 -5.000000e+00
      vertex   -3.268581e+00 -5.000000e+00 -3.783699e+00
      vertex   -2.722923e+00 -5.000000e+00 -4.193529e+00
    endloop
  endfacet
  facet normal -0.000000e+00 1.000000e+00 0.000000e+00
    outer loop
      vertex   -8.660254e+00 -5.000000e+00 -5.000000e+00
      vertex   -2.722923e+00 -5.000000e+00 -4.193529e+00
      vertex   -1.110223e-15 -5.000000e+00 -1.000000e+01
    endloop
  endfacet
  facet normal 0.000000e+00 1.000000e+00 0.000000e+00
    outer loop
      vertex   -1.110223e-15 -5.000000e+00 -1.000000e+01
      vertex   -2.722923e+00 -5.000000e+00 -4.193529e+00
      vertex   -2.126543e+00 -5.000000e+00 -4.525242e+00
    endloop
  endfacet
  facet normal 0.000000e+00 1.000000e+00 0.000000e+00
    outer loop
      vertex   -1.110223e-15 -5.000000e+00 -1.000000e+01
      vertex   -2.126543e+00 -5.000000e+00 -4.525242e+00
      vertex   -1.490549e+00 -5.000000e+00 -4.772658e+00
    endloop
  endfacet
  facet normal 0.000000e+00 1.000000e+00 0.000000e+00
    outer loop
      vertex   -1.490549e+00 -5.000000e+00 -4.772658e+00
      vertex   -8.267892e-01 -5.000000e+00 -4.931168e+00
      vertex   -1.110223e-15 -5.000000e+00 -1.000000e+01
    endloop
  endfacet
  facet normal 0.000000e+00 1.000000e+00 0.000000e+00
    outer loop
      vertex   -1.110223e-15 -5.000000e+00 -1.000000e+01
      vertex   -8.267892e-01 -5.000000e+00 -4.931168e+00
      vertex   -1.476278e-01 -5.000000e+00 -4.997820e+00
    endloop
  endfacet
  facet normal 0.000000e+00 1.000000e+00 -0.000000e+00
    outer loop
      vertex   -1.110223e-15 -5.000000e+00 -1.000000e+01
      vertex   -1.476278e-01 -5.000000e+00 -4.997820e+00
      vertex   5.342837e-01 -5.000000e+00 -4.971372e+00
    endloop
  endfacet
  facet normal -0.000000e+00 1.000000e+00 0.000000e+00
    outer loop
      vertex   5.342837e-01 -5.000000e+00 -4.971372e+00
      vertex   1.206242e+00 -5.000000e+00 -4.852317e+00
      vertex   -1.110223e-15 -5.000000e+00 -1.000000e+01
    endloop
  endfacet
  facet normal 0.000000e+00 1.000000e+00 0.000000e+00
    outer loop
      vertex   -1.110223e-15 -5.000000e+00 -1.000000e+01
      vertex   1.206242e+00 -5.000000e+00 -4.852317e+00
      vertex   1.855731e+00 -5.000000e+00 -4.642872e+00
    endloop
  endfacet
  facet normal 0.000000e+00 1.000000e+00 0.000000e+00
    outer loop
      vertex   -1.110223e-15 -5.000000e+00 -1.000000e+01
      vertex   1.855731e+00 -5.000000e+00 -4.642872e+00
      vertex   2.470651e+00 -5.000000e+00 -4.346940e+00
    endloop
  endfacet
  facet normal 0.000000e+00 1.000000e+00 0.000000e+00
    outer loop
      vertex   -1.110223e-15 -5.000000e+00 -1.000000e+01
      vertex   2.470651e+00 -5.000000e+00 -4.346940e+00
      vertex   8.660254e+00 -5.000000e+00 -5.000000e+00
    endloop
  endfacet
  facet normal 0.000000e+00 1.000000e+00 0.000000e+00
    outer loop
      vertex   8.660254e+00 -5.000000e+00 -5.000000e+00
      vertex   2.470651e+00 -5.000000e+00 -4.346940e+00
      vertex   3.039548e+00 -5.000000e+00 -3.970032e+00
    endloop
  endfacet
  facet normal 0.000000e+00 1.000000e+00 0.000000e+00
    outer loop
      vertex   8.660254e+00 -5.000000e+00 -5.000000e+00
      vertex   3.039548e+00 -5.000000e+00 -3.970032e+00
      vertex   3.551823e+00 -5.000000e+00 -3.519170e+00
    endloop
  endfacet
  facet normal -0.000000e+00 1.000000e+00 0.000000e+00
    outer loop
      vertex   3.551823e+00 -5.000000e+00 -3.519170e+00
      vertex   3.997935e+00 -5.000000e+00 -3.002752e+00
      vertex   8.660254e+00 -5.000000e+00 -5.000000e+00
    endloop
  endfacet
  facet normal 0.000000e+00 1.000000e+00 0.000000e+00
    outer loop
      vertex   8.660254e+00 -5.000000e+00 -5.000000e+00
      vertex   3.997935e+00 -5.000000e+00 -3.002752e+00
      vertex   4.369572e+00 -5.000000e+00 -2.430399e+00
    endloop
  endfacet
  facet normal 0.000000e+00 1.000000e+00 0.000000e+00
    outer loop
      vertex   2.020726e+01 -5.000000e+00 -2.500000e+01
      vertex   8.660254e+00 -5.000000e+00 -2.500000e+01
      vertex   8.660254e+00 -5.000000e+00 -5.000000e+00
    endloop
  endfacet
  facet normal 0.000000e+00 1.000000e+00 0.000000e+00
    outer loop
      vertex   8.660254e+00 -5.000000e+00 -5.000000e+00
      vertex   8.660254e+00 -5.000000e+00 -2.500000e+01
      vertex   -1.110223e-15 -5.000000e+00 -1.000000e+01
    endloop
  endfacet
  facet normal 0.000000e+00 1.000000e+00 0.000000e+00
    outer loop
      vertex   -1.110223e-15 -5.000000e+00 -1.000000e+01
      vertex   -8.660254e+00 -5.000000e+00 -2.500000e+01
      vertex   -8.660254e+00 -5.000000e+00 -5.000000e+00
    endloop
  endfacet
  facet normal 0.000000e+00 1.000000e+00 0.000000e+00
    outer loop
      vertex   -8.660254e+00 -5.000000e+00 -5.000000e+00
      vertex   -8.660254e+00 -5.000000e+00 -2.500000e+01
      vertex   -2.020726e+01 -5.000000e+00 -2.500000e+01
    endloop
  endfacet
  facet normal 0.000000e+00 1.000000e+00 0.000000e+00
    outer loop
      vertex   -2.500000e+01 -5.000000e+00 -5.000000e+00
      vertex   -2.500000e+01 -5.000000e+00 5.000000e+00
      vertex   -8.660254e+00 -5.000000e+00 -5.000000e+00
    endloop
  endfacet
  facet normal 0.000000e+00 1.000000e+00 -0.000000e+00
    outer loop
      vertex   -8.660254e+00 -5.000000e+00 -5.000000e+00
      vertex   -2.500000e+01 -5.000000e+00 5.000000e+00
      vertex   -8.660254e+00 -5.000000e+00 5.000000e+00
    endloop
  endfacet
  facet normal -0.000000e+00 1.000000e+00 0.000000e+00
    outer loop
      vertex   -2.020726e+01 -5.000000e+00 2.500000e+01
      vertex   -8.660254e+00 -5.000000e+00 2.500000e+01
      vertex   -8.660254e+00 -5.000000e+00 5.000000e+00
    endloop
  endfacet
  facet normal 0.000000e+00 1.000000e+00 0.000000e+00
    outer loop
      vertex   -8.660254e+00 -5.000000e+00 5.000000e+00
      vertex   -8.660254e+00 -5.000000e+00 2.500000e+01
      vertex   -6.661338e-15 -5.000000e+00 1.000000e+01
    endloop
  endfacet
  facet normal -0.000000e+00 1.000000e+00 0.000000e+00
    outer loop
      vertex   8.660254e+00 -5.000000e+00 2.500000e+01
      vertex   2.020726e+01 -5.000000e+00 2.500000e+01
      vertex   8.660254e+00 -5.000000e+00 5.000000e+00
    endloop
  endfacet
  facet normal 8.660254e-01 1.969845e-16 5.000000e-01
    outer loop
      vertex   -1.110223e-15 -5.000000e+00 -1.000000e+01
      vertex   8.660254e+00 -5.000000e+00 -2.500000e+01
      vertex   -2.359224e-15 5.000000e+00 -1.000000e+01
    endloop
  endfacet
  facet normal 8.660254e-01 1.868668e-17 5.000000e-01
    outer loop
      vertex   -2.359224e-15 5.000000e+00 -1.000000e+01
      vertex   8.660254e+00 -5.000000e+00 -2.500000e+01
      vertex   8.660254e+00 5.000000e+00 -2.500000e+01
    endloop
  endfacet
  facet normal 1.000000e+00 0.000000e+00 -1.490116e-08
    outer loop
      vertex   2.500000e+01 5.000000e+00 5.000000e+00
      vertex   2.500000e+01 5.000000e+00 2.500000e+01
      vertex   2.500000e+01 -5.000000e+00 5.000000e+00
    endloop
  endfacet
  facet normal 1.000000e+00 -4.235165e-25 -1.490116e-08
    outer loop
      vertex   2.500000e+01 -5.000000e+00 5.000000e+00
      vertex   2.500000e+01 5.000000e+00 2.500000e+01
      vertex   2.500000e+01 -2.000000e+01 2.500000e+01
    endloop
  endfacet
  facet normal 1.000000e+00 1.192093e-08 -5.960464e-09
    outer loop
      vertex   2.500000e+01 -5.000000e+00 5.000000e+00
      vertex   2.500000e+01 -2.000000e+01 2.500000e+01
      vertex   2.500000e+01 -2.000000e+01 -2.500000e+01
    endloop
  endfacet
  facet normal 1.000000e+00 0.000000e+00 0.000000e+00
    outer loop
      vertex   2.500000e+01 -5.000000e+00 5.000000e+00
      vertex   2.500000e+01 -2.000000e+01 -2.500000e+01
      vertex   2.500000e+01 -5.000000e+00 -5.000000e+00
    endloop
  endfacet
  facet normal 1.000000e+00 0.000000e+00 0.000000e+00
    outer loop
      vertex   2.500000e+01 -5.000000e+00 -5.000000e+00
      vertex   2.500000e+01 -2.000000e+01 -2.500000e+01
      vertex   2.500000e+01 5.000000e+00 -2.500000e+01
    endloop
  endfacet
  facet normal 1.000000e+00 -0.000000e+00 0.000000e+00
    outer loop
      vertex   2.500000e+01 -5.000000e+00 -5.000000e+00
      vertex   2.500000e+01 5.000000e+00 -2.500000e+01
      vertex   2.500000e+01 5.000000e+00 -5.000000e+00
    endloop
  endfacet
  facet normal -0.000000e+00 -1.000000e+00 0.000000e+00
    outer loop
      vertex   -4.953430e+00 -2.000000e+01 6.808332e-01
      vertex   -2.500000e+01 -2.000000e+01 2.500000e+01
      vertex   -5.000000e+00 -2.000000e+01 -6.123234e-16
    endloop
  endfacet
  facet normal -0.000000e+00 -1.000000e+00 0.000000e+00
    outer loop
      vertex   -5.000000e+00 -2.000000e+01 -6.123234e-16
      vertex   -2.500000e+01 -2.000000e+01 2.500000e+01
      vertex   -2.500000e+01 -2.000000e+01 -2.500000e+01
    endloop
  endfacet
  facet normal 0.000000e+00 -1.000000e+00 -0.000000e+00
    outer loop
      vertex   -5.000000e+00 -2.000000e+01 -6.123234e-16
      vertex   -2.500000e+01 -2.000000e+01 -2.500000e+01
      vertex   -4.953430e+00 -2.000000e+01 -6.808332e-01
    endloop
  endfacet
  facet normal 0.000000e+00 -1.000000e+00 -0.000000e+00
    outer loop
      vertex   -4.953430e+00 -2.000000e+01 -6.808332e-01
      vertex   -2.500000e+01 -2.000000e+01 -2.500000e+01
      vertex   -4.814586e+00 -2.000000e+01 -1.348984e+00
    endloop
  endfacet
  facet normal 0.000000e+00 -1.000000e+00 -0.000000e+00
    outer loop
      vertex   -4.814586e+00 -2.000000e+01 -1.348984e+00
      vertex   -2.500000e+01 -2.000000e+01 -2.500000e+01
      vertex   -4.586057e+00 -2.000000e+01 -1.992005e+00
    endloop
  endfacet
  facet normal 0.000000e+00 -1.000000e+00 -0.000000e+00
    outer loop
      vertex   -4.586057e+00 -2.000000e+01 -1.992005e+00
      vertex   -2.500000e+01 -2.000000e+01 -2.500000e+01
      vertex   -4.272097e+00 -2.000000e+01 -2.597920e+00
    endloop
  endfacet
  facet normal 0.000000e+00 -1.000000e+00 -0.000000e+00
    outer loop
      vertex   -4.272097e+00 -2.000000e+01 -2.597920e+00
      vertex   -2.500000e+01 -2.000000e+01 -2.500000e+01
      vertex   -3.878556e+00 -2.000000e+01 -3.155440e+00
    endloop
  endfacet
  facet normal 0.000000e+00 -1.000000e+00 -0.000000e+00
    outer loop
      vertex   -3.878556e+00 -2.000000e+01 -3.155440e+00
      vertex   -2.500000e+01 -2.000000e+01 -2.500000e+01
      vertex   -3.412766e+00 -2.000000e+01 -3.654180e+00
    endloop
  endfacet
  facet normal 0.000000e+00 -1.000000e+00 -0.000000e+00
    outer loop
      vertex   -3.412766e+00 -2.000000e+01 -3.654180e+00
      vertex   -2.500000e+01 -2.000000e+01 -2.500000e+01
      vertex   -2.883402e+00 -2.000000e+01 -4.084849e+00
    endloop
  endfacet
  facet normal 0.000000e+00 -1.000000e+00 -0.000000e+00
    outer loop
      vertex   -2.883402e+00 -2.000000e+01 -4.084849e+00
      vertex   -2.500000e+01 -2.000000e+01 -2.500000e+01
      vertex   -2.300325e+00 -2.000000e+01 -4.439426e+00
    endloop
  endfacet
  facet normal 0.000000e+00 -1.000000e+00 -0.000000e+00
    outer loop
      vertex   -2.300325e+00 -2.000000e+01 -4.439426e+00
      vertex   -2.500000e+01 -2.000000e+01 -2.500000e+01
      vertex   -1.674398e+00 -2.000000e+01 -4.711305e+00
    endloop
  endfacet
  facet normal 0.000000e+00 -1.000000e+00 -0.000000e+00
    outer loop
      vertex   -1.674398e+00 -2.000000e+01 -4.711305e+00
      vertex   -2.500000e+01 -2.000000e+01 -2.500000e+01
      vertex   -1.017280e+00 -2.000000e+01 -4.895420e+00
    endloop
  endfacet
  facet normal 0.000000e+00 -1.000000e+00 -0.000000e+00
    outer loop
      vertex   -1.017280e+00 -2.000000e+01 -4.895420e+00
      vertex   -2.500000e+01 -2.000000e+01 -2.500000e+01
      vertex   -3.412121e-01 -2.000000e+01 -4.988344e+00
    endloop
  endfacet
  facet normal 0.000000e+00 -1.000000e+00 -0.000000e+00
    outer loop
      vertex   -3.412121e-01 -2.000000e+01 -4.988344e+00
      vertex   -2.500000e+01 -2.000000e+01 -2.500000e+01
      vertex   3.412121e-01 -2.000000e+01 -4.988344e+00
    endloop
  endfacet
  facet normal 0.000000e+00 -1.000000e+00 -0.000000e+00
    outer loop
      vertex   3.412121e-01 -2.000000e+01 -4.988344e+00
      vertex   -2.500000e+01 -2.000000e+01 -2.500000e+01
      vertex   2.500000e+01 -2.000000e+01 -2.500000e+01
    endloop
  endfacet
  facet normal 0.000000e+00 -1.000000e+00 0.000000e+00
    outer loop
      vertex   3.412121e-01 -2.000000e+01 -4.988344e+00
      vertex   2.500000e+01 -2.000000e+01 -2.500000e+01
      vertex   1.017280e+00 -2.000000e+01 -4.895420e+00
    endloop
  endfacet
  facet normal 0.000000e+00 -1.000000e+00 0.000000e+00
    outer loop
      vertex   1.017280e+00 -2.000000e+01 -4.895420e+00
      vertex   2.500000e+01 -2.000000e+01 -2.500000e+01
      vertex   1.674398e+00 -2.000000e+01 -4.711305e+00
    endloop
  endfacet
  facet normal 0.000000e+00 -1.000000e+00 0.000000e+00
    outer loop
      vertex   1.674398e+00 -2.000000e+01 -4.711305e+00
      vertex   2.500000e+01 -2.000000e+01 -2.500000e+01
      vertex   2.300325e+00 -2.000000e+01 -4.439426e+00
    endloop
  endfacet
  facet normal 0.000000e+00 -1.000000e+00 0.000000e+00
    outer loop
      vertex   2.300325e+00 -2.000000e+01 -4.439426e+00
      vertex   2.500000e+01 -2.000000e+01 -2.500000e+01
      vertex   2.883402e+00 -2.000000e+01 -4.084849e+00
    endloop
  endfacet
  facet normal 0.000000e+00 -1.000000e+00 0.000000e+00
    outer loop
      vertex   2.883402e+00 -2.000000e+01 -4.084849e+00
      vertex   2.500000e+01 -2.000000e+01 -2.500000e+01
      vertex   3.412766e+00 -2.000000e+01 -3.654180e+00
    endloop
  endfacet
  facet normal 0.000000e+00 -1.000000e+00 0.000000e+00
    outer loop
      vertex   3.412766e+00 -2.000000e+01 -3.654180e+00
      vertex   2.500000e+01 -2.000000e+01 -2.500000e+01
      vertex   3.878556e+00 -2.000000e+01 -3.155440e+00
    endloop
  endfacet
  facet normal 0.000000e+00 -1.000000e+00 0.000000e+00
    outer loop
      vertex   3.878556e+00 -2.000000e+01 -3.155440e+00
      vertex   2.500000e+01 -2.000000e+01 -2.500000e+01
      vertex   4.272097e+00 -2.000000e+01 -2.597920e+00
    endloop
  endfacet
  facet normal 0.000000e+00 -1.000000e+00 0.000000e+00
    outer loop
      vertex   4.272097e+00 -2.000000e+01 -2.597920e+00
      vertex   2.500000e+01 -2.000000e+01 -2.500000e+01
      vertex   4.586057e+00 -2.000000e+01 -1.992005e+00
    endloop
  endfacet
  facet normal 0.000000e+00 -1.000000e+00 0.000000e+00
    outer loop
      vertex   4.586057e+00 -2.000000e+01 -1.992005e+00
      vertex   2.500000e+01 -2.000000e+01 -2.500000e+01
      vertex   4.814586e+00 -2.000000e+01 -1.348984e+00
    endloop
  endfacet
  facet normal 0.000000e+00 -1.000000e+00 0.000000e+00
    outer loop
      vertex   4.814586e+00 -2.000000e+01 -1.348984e+00
      vertex   2.500000e+01 -2.000000e+01 -2.500000e+01
      vertex   4.953430e+00 -2.000000e+01 -6.808332e-01
    endloop
  endfacet
  facet normal 0.000000e+00 -1.000000e+00 0.000000e+00
    outer loop
      vertex   4.953430e+00 -2.000000e+01 -6.808332e-01
      vertex   2.500000e+01 -2.000000e+01 -2.500000e+01
      vertex   5.000000e+00 -2.000000e+01 0.000000e+00
    endloop
  endfacet
  facet normal 0.000000e+00 -1.000000e+00 0.000000e+00
    outer loop
      vertex   5.000000e+00 -2.000000e+01 0.000000e+00
      vertex   2.500000e+01 -2.000000e+01 -2.500000e+01
      vertex   2.500000e+01 -2.000000e+01 2.500000e+01
    endloop
  endfacet
  facet normal 0.000000e+00 -1.000000e+00 0.000000e+00
    outer loop
      vertex   5.000000e+00 -2.000000e+01 0.000000e+00
      vertex   2.500000e+01 -2.000000e+01 2.500000e+01
      vertex   4.953430e+00 -2.000000e+01 6.808332e-01
    endloop
  endfacet
  facet normal 0.000000e+00 -1.000000e+00 0.000000e+00
    outer loop
      vertex   4.953430e+00 -2.000000e+01 6.808332e-01
      vertex   2.500000e+01 -2.000000e+01 2.500000e+01
      vertex   4.814586e+00 -2.000000e+01 1.348984e+00
    endloop
  endfacet
  facet normal 0.000000e+00 -1.000000e+00 0.000000e+00
    outer loop
      vertex   4.814586e+00 -2.000000e+01 1.348984e+00
      vertex   2.500000e+01 -2.000000e+01 2.500000e+01
      vertex   4.586057e+00 -2.000000e+01 1.992005e+00
    endloop
  endfacet
  facet normal 0.000000e+00 -1.000000e+00 0.000000e+00
    outer loop
      vertex   4.586057e+00 -2.000000e+01 1.992005e+00
      vertex   2.500000e+01 -2.000000e+01 2.500000e+01
      vertex   4.272097e+00 -2.000000e+01 2.597920e+00
    endloop
  endfacet
  facet normal 0.000000e+00 -1.000000e+00 0.000000e+00
    outer loop
      vertex   4.272097e+00 -2.000000e+01 2.597920e+00
      vertex   2.500000e+01 -2.000000e+01 2.500000e+01
      vertex   3.878556e+00 -2.000000e+01 3.155440e+00
    endloop
  endfacet
  facet normal 0.000000e+00 -1.000000e+00 0.000000e+00
    outer loop
      vertex   3.878556e+00 -2.000000e+01 3.155440e+00
      vertex   2.500000e+01 -2.000000e+01 2.500000e+01
      vertex   3.412766e+00 -2.000000e+01 3.654180e+00
    endloop
  endfacet
  facet normal 0.000000e+00 -1.000000e+00 0.000000e+00
    outer loop
      vertex   3.412766e+00 -2.000000e+01 3.654180e+00
      vertex   2.500000e+01 -2.000000e+01 2.500000e+01
      vertex   2.883402e+00 -2.000000e+01 4.084849e+00
    endloop
  endfacet
  facet normal 0.000000e+00 -1.000000e+00 0.000000e+00
    outer loop
      vertex   2.883402e+00 -2.000000e+01 4.084849e+00
      vertex   2.500000e+01 -2.000000e+01 2.500000e+01
      vertex   2.300325e+00 -2.000000e+01 4.439426e+00
    endloop
  endfacet
  facet normal 0.000000e+00 -1.000000e+00 0.000000e+00
    outer loop
      vertex   2.300325e+00 -2.000000e+01 4.439426e+00
      vertex   2.500000e+01 -2.000000e+01 2.500000e+01
      vertex   1.674398e+00 -2.000000e+01 4.711305e+00
    endloop
  endfacet
  facet normal 0.000000e+00 -1.000000e+00 0.000000e+00
    outer loop
      vertex   1.674398e+00 -2.000000e+01 4.711305e+00
      vertex   2.500000e+01 -2.000000e+01 2.500000e+01
      vertex   1.017280e+00 -2.000000e+01 4.895420e+00
    endloop
  endfacet
  facet normal 0.000000e+00 -1.000000e+00 0.000000e+00
    outer loop
      vertex   1.017280e+00 -2.000000e+01 4.895420e+00
      vertex   2.500000e+01 -2.000000e+01 2.500000e+01
      vertex   3.412121e-01 -2.000000e+01 4.988344e+00
    endloop
  endfacet
  facet normal 0.000000e+00 -1.000000e+00 0.000000e+00
    outer loop
      vertex   3.412121e-01 -2.000000e+01 4.988344e+00
      vertex   2.500000e+01 -2.000000e+01 2.500000e+01
      vertex   -2.500000e+01 -2.000000e+01 2.500000e+01
    endloop
  endfacet
  facet normal 0.000000e+00 -1.000000e+00 0.000000e+00
    outer loop
      vertex   3.412121e-01 -2.000000e+01 4.988344e+00
      vertex   -2.500000e+01 -2.000000e+01 2.500000e+01
      vertex   -3.412121e-01 -2.000000e+01 4.988344e+00
    endloop
  endfacet
  facet normal -0.000000e+00 -1.000000e+00 0.000000e+00
    outer loop
      vertex   -3.412121e-01 -2.000000e+01 4.988344e+00
      vertex   -2.500000e+01 -2.000000e+01 2.500000e+01
      vertex   -1.017280e+00 -2.000000e+01 4.895420e+00
    endloop
  endfacet
  facet normal -0.000000e+00 -1.000000e+00 0.000000e+00
    outer loop
      vertex   -1.017280e+00 -2.000000e+01 4.895420e+00
      vertex   -2.500000e+01 -2.000000e+01 2.500000e+01
      vertex   -1.674398e+00 -2.000000e+01 4.711305e+00
    endloop
  endfacet
  facet normal -0.000000e+00 -1.000000e+00 0.000000e+00
    outer loop
      vertex   -1.674398e+00 -2.000000e+01 4.711305e+00
      vertex   -2.500000e+01 -2.000000e+01 2.500000e+01
      vertex   -2.300325e+00 -2.000000e+01 4.439426e+00
    endloop
  endfacet
  facet normal -0.000000e+00 -1.000000e+00 0.000000e+00
    outer loop
      vertex   -2.300325e+00 -2.000000e+01 4.439426e+00
      vertex   -2.500000e+01 -2.000000e+01 2.500000e+01
      vertex   -2.883402e+00 -2.000000e+01 4.084849e+00
    endloop
  endfacet
  facet normal -0.000000e+00 -1.000000e+00 0.000000e+00
    outer loop
      vertex   -2.883402e+00 -2.000000e+01 4.084849e+00
      vertex   -2.500000e+01 -2.000000e+01 2.500000e+01
      vertex   -3.412766e+00 -2.000000e+01 3.654180e+00
    endloop
  endfacet
  facet normal -0.000000e+00 -1.000000e+00 0.000000e+00
    outer loop
      vertex   -3.412766e+00 -2.000000e+01 3.654180e+00
      vertex   -2.500000e+01 -2.000000e+01 2.500000e+01
      vertex   -3.878556e+00 -2.000000e+01 3.155440e+00
    endloop
  endfacet
  facet normal -0.000000e+00 -1.000000e+00 0.000000e+00
    outer loop
      vertex   -3.878556e+00 -2.000000e+01 3.155440e+00
      vertex   -2.500000e+01 -2.000000e+01 2.500000e+01
      vertex   -4.272097e+00 -2.000000e+01 2.597920e+00
    endloop
  endfacet
  facet normal -0.000000e+00 -1.000000e+00 0.000000e+00
    outer loop
      vertex   -4.272097e+00 -2.000000e+01 2.597920e+00
      vertex   -2.500000e+01 -2.000000e+01 2.500000e+01
      vertex   -4.586057e+00 -2.000000e+01 1.992005e+00
    endloop
  endfacet
  facet normal -0.000000e+00 -1.000000e+00 0.000000e+00
    outer loop
      vertex   -4.586057e+00 -2.000000e+01 1.992005e+00
      vertex   -2.500000e+01 -2.000000e+01 2.500000e+01
      vertex   -4.814586e+00 -2.000000e+01 1.348984e+00
    endloop
  endfacet
  facet normal -0.000000e+00 -1.000000e+00 0.000000e+00
    outer loop
      vertex   -4.814586e+00 -2.000000e+01 1.348984e+00
      vertex   -2.500000e+01 -2.000000e+01 2.500000e+01
      vertex   -4.953430e+00 -2.000000e+01 6.808332e-01
    endloop
  endfacet
endsolid
