solid ASCII
  facet normal 5.000000e-01 0.000000e+00 -8.660254e-01
    outer loop
      vertex   -5.551115e-15 -5.000000e+00 9.999707e+00
      vertex   -8.660000e+00 -5.000000e+00 4.999853e+00
      vertex   -5.551115e-15 5.000000e+00 9.999707e+00
    endloop
  endfacet
  facet normal 5.000000e-01 -2.130930e-17 -8.660254e-01
    outer loop
      vertex   -5.551115e-15 5.000000e+00 9.999707e+00
      vertex   -8.660000e+00 -5.000000e+00 4.999853e+00
      vertex   -8.660000e+00 5.000000e+00 4.999853e+00
    endloop
  endfacet
  facet normal -8.660254e-01 3.076740e-16 -5.000000e-01
    outer loop
      vertex   -8.660078e+00 -5.000000e+00 4.999898e+00
      vertex   -1.366004e+01 -5.000000e+00 1.366008e+01
      vertex   -8.660078e+00 5.000000e+00 4.999898e+00
    endloop
  endfacet
  facet normal -8.660254e-01 3.327322e-17 -5.000000e-01
    outer loop
      vertex   -8.660078e+00 5.000000e+00 4.999898e+00
      vertex   -1.366004e+01 -5.000000e+00 1.366008e+01
      vertex   -1.366004e+01 5.000000e+00 1.366008e+01
    endloop
  endfacet
  facet normal 8.660254e-01 0.000000e+00 5.000000e-01
    outer loop
      vertex   -1.665335e-15 5.000000e+00 9.999796e+00
      vertex   -4.999961e+00 5.000000e+00 1.865998e+01
      vertex   -1.665335e-15 -5.000000e+00 9.999796e+00
    endloop
  endfacet
  facet normal 8.660254e-01 1.550744e-17 5.000000e-01
    outer loop
      vertex   -1.665335e-15 -5.000000e+00 9.999796e+00
      vertex   -4.999961e+00 5.000000e+00 1.865998e+01
      vertex   -4.999961e+00 -5.000000e+00 1.865998e+01
    endloop
  endfacet
  facet normal -5.000000e-01 0.000000e+00 8.660254e-01
    outer loop
      vertex   -4.999961e+00 5.000000e+00 1.865998e+01
      vertex   -1.366004e+01 5.000000e+00 1.366008e+01
      vertex   -4.999961e+00 -5.000000e+00 1.865998e+01
    endloop
  endfacet
  facet normal -5.000000e-01 2.026870e-17 8.660254e-01
    outer loop
      vertex   -4.999961e+00 -5.000000e+00 1.865998e+01
      vertex   -1.366004e+01 5.000000e+00 1.366008e+01
      vertex   -1.366004e+01 -5.000000e+00 1.366008e+01
    endloop
  endfacet
  facet normal -8.660254e-01 0.000000e+00 5.000000e-01
    outer loop
      vertex   -1.665335e-15 -5.000000e+00 9.999796e+00
      vertex   4.999961e+00 -5.000000e+00 1.865998e+01
      vertex   -1.665335e-15 5.000000e+00 9.999796e+00
    endloop
  endfacet
  facet normal -8.660254e-01 2.691960e-17 5.000000e-01
    outer loop
      vertex   -1.665335e-15 5.000000e+00 9.999796e+00
      vertex   4.999961e+00 -5.000000e+00 1.865998e+01
      vertex   4.999961e+00 5.000000e+00 1.865998e+01
    endloop
  endfacet
  facet normal 1.000000e+00 -0.000000e+00 0.000000e+00
    outer loop
      vertex   -8.660000e+00 -5.000000e+00 4.999853e+00
      vertex   -8.660000e+00 -5.000000e+00 -4.999853e+00
      vertex   -8.660000e+00 5.000000e+00 4.999853e+00
    endloop
  endfacet
  facet normal 1.000000e+00 0.000000e+00 0.000000e+00
    outer loop
      vertex   -8.660000e+00 5.000000e+00 4.999853e+00
      vertex   -8.660000e+00 -5.000000e+00 -4.999853e+00
      vertex   -8.660000e+00 5.000000e+00 -4.999853e+00
    endloop
  endfacet
  facet normal 0.000000e+00 -1.000000e+00 0.000000e+00
    outer loop
      vertex   8.660000e+00 -5.000000e+00 4.999853e+00
      vertex   8.660078e+00 -5.000000e+00 4.999898e+00
      vertex   -5.551115e-15 -5.000000e+00 9.999707e+00
    endloop
  endfacet
  facet normal 0.000000e+00 -1.000000e+00 0.000000e+00
    outer loop
      vertex   -5.551115e-15 -5.000000e+00 9.999707e+00
      vertex   8.660078e+00 -5.000000e+00 4.999898e+00
      vertex   -1.665335e-15 -5.000000e+00 9.999796e+00
    endloop
  endfacet
  facet normal -0.000000e+00 -1.000000e+00 0.000000e+00
    outer loop
      vertex   -5.551115e-15 -5.000000e+00 9.999707e+00
      vertex   -1.665335e-15 -5.000000e+00 9.999796e+00
      vertex   -8.660000e+00 -5.000000e+00 4.999853e+00
    endloop
  endfacet
  facet normal 0.000000e+00 -1.000000e+00 0.000000e+00
    outer loop
      vertex   -8.660000e+00 -5.000000e+00 4.999853e+00
      vertex   -1.665335e-15 -5.000000e+00 9.999796e+00
      vertex   -8.660078e+00 -5.000000e+00 4.999898e+00
    endloop
  endfacet
  facet normal -0.000000e+00 -1.000000e+00 0.000000e+00
    outer loop
      vertex   -8.660000e+00 -5.000000e+00 4.999853e+00
      vertex   -8.660078e+00 -5.000000e+00 4.999898e+00
      vertex   -8.660078e+00 -5.000000e+00 -4.999898e+00
    endloop
  endfacet
  facet normal 0.000000e+00 -1.000000e+00 0.000000e+00
    outer loop
      vertex   -8.660078e+00 -5.000000e+00 -4.999898e+00
      vertex   -8.660078e+00 -5.000000e+00 4.999898e+00
      vertex   -1.866000e+01 -5.000000e+00 -4.999898e+00
    endloop
  endfacet
  facet normal 0.000000e+00 -1.000000e+00 0.000000e+00
    outer loop
      vertex   -1.866000e+01 -5.000000e+00 -4.999898e+00
      vertex   -8.660078e+00 -5.000000e+00 4.999898e+00
      vertex   -1.866000e+01 -5.000000e+00 4.999898e+00
    endloop
  endfacet
  facet normal 0.000000e+00 -1.000000e+00 0.000000e+00
    outer loop
      vertex   8.660000e+00 -5.000000e+00 4.999853e+00
      vertex   8.660000e+00 -5.000000e+00 -4.999853e+00
      vertex   8.660078e+00 -5.000000e+00 4.999898e+00
    endloop
  endfacet
  facet normal 0.000000e+00 -1.000000e+00 -0.000000e+00
    outer loop
      vertex   8.660078e+00 -5.000000e+00 4.999898e+00
      vertex   8.660000e+00 -5.000000e+00 -4.999853e+00
      vertex   8.660078e+00 -5.000000e+00 -4.999898e+00
    endloop
  endfacet
  facet normal 0.000000e+00 -1.000000e+00 0.000000e+00
    outer loop
      vertex   8.660078e+00 -5.000000e+00 4.999898e+00
      vertex   8.660078e+00 -5.000000e+00 -4.999898e+00
      vertex   1.866000e+01 -5.000000e+00 4.999898e+00
    endloop
  endfacet
  facet normal 0.000000e+00 -1.000000e+00 -0.000000e+00
    outer loop
      vertex   1.866000e+01 -5.000000e+00 4.999898e+00
      vertex   8.660078e+00 -5.000000e+00 -4.999898e+00
      vertex   1.866000e+01 -5.000000e+00 -4.999898e+00
    endloop
  endfacet
  facet normal 0.000000e+00 -1.000000e+00 -0.000000e+00
    outer loop
      vertex   8.660000e+00 -5.000000e+00 -4.999853e+00
      vertex   2.220446e-15 -5.000000e+00 -9.999707e+00
      vertex   8.660078e+00 -5.000000e+00 -4.999898e+00
    endloop
  endfacet
  facet normal 0.000000e+00 -1.000000e+00 0.000000e+00
    outer loop
      vertex   8.660078e+00 -5.000000e+00 -4.999898e+00
      vertex   2.220446e-15 -5.000000e+00 -9.999707e+00
      vertex   9.992007e-15 -5.000000e+00 -9.999796e+00
    endloop
  endfacet
  facet normal 0.000000e+00 -1.000000e+00 -0.000000e+00
    outer loop
      vertex   8.660078e+00 -5.000000e+00 -4.999898e+00
      vertex   9.992007e-15 -5.000000e+00 -9.999796e+00
      vertex   1.366004e+01 -5.000000e+00 -1.366008e+01
    endloop
  endfacet
  facet normal -0.000000e+00 -1.000000e+00 0.000000e+00
    outer loop
      vertex   1.366004e+01 -5.000000e+00 -1.366008e+01
      vertex   9.992007e-15 -5.000000e+00 -9.999796e+00
      vertex   4.999961e+00 -5.000000e+00 -1.865998e+01
    endloop
  endfacet
  facet normal -0.000000e+00 -1.000000e+00 -0.000000e+00
    outer loop
      vertex   2.220446e-15 -5.000000e+00 -9.999707e+00
      vertex   -8.660000e+00 -5.000000e+00 -4.999853e+00
      vertex   9.992007e-15 -5.000000e+00 -9.999796e+00
    endloop
  endfacet
  facet normal 0.000000e+00 -1.000000e+00 0.000000e+00
    outer loop
      vertex   9.992007e-15 -5.000000e+00 -9.999796e+00
      vertex   -8.660000e+00 -5.000000e+00 -4.999853e+00
      vertex   -8.660078e+00 -5.000000e+00 -4.999898e+00
    endloop
  endfacet
  facet normal -0.000000e+00 -1.000000e+00 0.000000e+00
    outer loop
      vertex   9.992007e-15 -5.000000e+00 -9.999796e+00
      vertex   -8.660078e+00 -5.000000e+00 -4.999898e+00
      vertex   -1.366004e+01 -5.000000e+00 -1.366008e+01
    endloop
  endfacet
  facet normal -0.000000e+00 -1.000000e+00 0.000000e+00
    outer loop
      vertex   -8.660000e+00 -5.000000e+00 -4.999853e+00
      vertex   -8.660000e+00 -5.000000e+00 4.999853e+00
      vertex   -8.660078e+00 -5.000000e+00 -4.999898e+00
    endloop
  endfacet
  facet normal 0.000000e+00 -1.000000e+00 -0.000000e+00
    outer loop
      vertex   -4.999961e+00 -5.000000e+00 1.865998e+01
      vertex   -1.366004e+01 -5.000000e+00 1.366008e+01
      vertex   -1.665335e-15 -5.000000e+00 9.999796e+00
    endloop
  endfacet
  facet normal -0.000000e+00 -1.000000e+00 0.000000e+00
    outer loop
      vertex   -1.665335e-15 -5.000000e+00 9.999796e+00
      vertex   -1.366004e+01 -5.000000e+00 1.366008e+01
      vertex   -8.660078e+00 -5.000000e+00 4.999898e+00
    endloop
  endfacet
  facet normal 0.000000e+00 -1.000000e+00 0.000000e+00
    outer loop
      vertex   -1.366004e+01 -5.000000e+00 -1.366008e+01
      vertex   -4.999961e+00 -5.000000e+00 -1.865998e+01
      vertex   9.992007e-15 -5.000000e+00 -9.999796e+00
    endloop
  endfacet
  facet normal 0.000000e+00 -1.000000e+00 0.000000e+00
    outer loop
      vertex   8.660078e+00 -5.000000e+00 4.999898e+00
      vertex   1.366004e+01 -5.000000e+00 1.366008e+01
      vertex   -1.665335e-15 -5.000000e+00 9.999796e+00
    endloop
  endfacet
  facet normal 0.000000e+00 -1.000000e+00 0.000000e+00
    outer loop
      vertex   -1.665335e-15 -5.000000e+00 9.999796e+00
      vertex   1.366004e+01 -5.000000e+00 1.366008e+01
      vertex   4.999961e+00 -5.000000e+00 1.865998e+01
    endloop
  endfacet
  facet normal 5.000000e-01 -0.000000e+00 8.660254e-01
    outer loop
      vertex   -8.660000e+00 -5.000000e+00 -4.999853e+00
      vertex   2.220446e-15 -5.000000e+00 -9.999707e+00
      vertex   -8.660000e+00 5.000000e+00 -4.999853e+00
    endloop
  endfacet
  facet normal 5.000000e-01 -3.215019e-17 8.660254e-01
    outer loop
      vertex   -8.660000e+00 5.000000e+00 -4.999853e+00
      vertex   2.220446e-15 -5.000000e+00 -9.999707e+00
      vertex   2.220446e-15 5.000000e+00 -9.999707e+00
    endloop
  endfacet
  facet normal 8.660254e-01 3.412067e-16 -5.000000e-01
    outer loop
      vertex   9.992007e-15 -5.000000e+00 -9.999796e+00
      vertex   -4.999961e+00 -5.000000e+00 -1.865998e+01
      vertex   7.077672e-15 5.000000e+00 -9.999796e+00
    endloop
  endfacet
  facet normal 8.660254e-01 -2.689363e-17 -5.000000e-01
    outer loop
      vertex   7.077672e-15 5.000000e+00 -9.999796e+00
      vertex   -4.999961e+00 -5.000000e+00 -1.865998e+01
      vertex   -4.999961e+00 5.000000e+00 -1.865998e+01
    endloop
  endfacet
  facet normal -5.000000e-01 0.000000e+00 -8.660254e-01
    outer loop
      vertex   -4.999961e+00 -5.000000e+00 -1.865998e+01
      vertex   -1.366004e+01 -5.000000e+00 -1.366008e+01
      vertex   -4.999961e+00 5.000000e+00 -1.865998e+01
    endloop
  endfacet
  facet normal -5.000000e-01 -1.492720e-17 -8.660254e-01
    outer loop
      vertex   -4.999961e+00 5.000000e+00 -1.865998e+01
      vertex   -1.366004e+01 -5.000000e+00 -1.366008e+01
      vertex   -1.366004e+01 5.000000e+00 -1.366008e+01
    endloop
  endfacet
  facet normal -8.660254e-01 0.000000e+00 5.000000e-01
    outer loop
      vertex   -8.660078e+00 5.000000e+00 -4.999898e+00
      vertex   -1.366004e+01 5.000000e+00 -1.366008e+01
      vertex   -8.660078e+00 -5.000000e+00 -4.999898e+00
    endloop
  endfacet
  facet normal -8.660254e-01 1.467357e-17 5.000000e-01
    outer loop
      vertex   -8.660078e+00 -5.000000e+00 -4.999898e+00
      vertex   -1.366004e+01 5.000000e+00 -1.366008e+01
      vertex   -1.366004e+01 -5.000000e+00 -1.366008e+01
    endloop
  endfacet
  facet normal -5.000000e-01 0.000000e+00 8.660254e-01
    outer loop
      vertex   2.220446e-15 -5.000000e+00 -9.999707e+00
      vertex   8.660000e+00 -5.000000e+00 -4.999853e+00
      vertex   2.220446e-15 5.000000e+00 -9.999707e+00
    endloop
  endfacet
  facet normal -5.000000e-01 -1.527211e-17 8.660254e-01
    outer loop
      vertex   2.220446e-15 5.000000e+00 -9.999707e+00
      vertex   8.660000e+00 -5.000000e+00 -4.999853e+00
      vertex   8.660000e+00 5.000000e+00 -4.999853e+00
    endloop
  endfacet
  facet normal -5.000000e-01 -0.000000e+00 -8.660254e-01
    outer loop
      vertex   -5.551115e-15 5.000000e+00 9.999707e+00
      vertex   8.660000e+00 5.000000e+00 4.999853e+00
      vertex   -5.551115e-15 -5.000000e+00 9.999707e+00
    endloop
  endfacet
  facet normal -5.000000e-01 -2.060092e-17 -8.660254e-01
    outer loop
      vertex   -5.551115e-15 -5.000000e+00 9.999707e+00
      vertex   8.660000e+00 5.000000e+00 4.999853e+00
      vertex   8.660000e+00 -5.000000e+00 4.999853e+00
    endloop
  endfacet
  facet normal 8.660254e-01 1.094281e-16 -5.000000e-01
    outer loop
      vertex   8.660078e+00 5.000000e+00 4.999898e+00
      vertex   1.366004e+01 5.000000e+00 1.366008e+01
      vertex   8.660078e+00 -5.000000e+00 4.999898e+00
    endloop
  endfacet
  facet normal 8.660254e-01 2.943450e-18 -5.000000e-01
    outer loop
      vertex   8.660078e+00 -5.000000e+00 4.999898e+00
      vertex   1.366004e+01 5.000000e+00 1.366008e+01
      vertex   1.366004e+01 -5.000000e+00 1.366008e+01
    endloop
  endfacet
  facet normal 5.000000e-01 0.000000e+00 8.660254e-01
    outer loop
      vertex   1.366004e+01 5.000000e+00 1.366008e+01
      vertex   4.999961e+00 5.000000e+00 1.865998e+01
      vertex   1.366004e+01 -5.000000e+00 1.366008e+01
    endloop
  endfacet
  facet normal 5.000000e-01 -9.238175e-18 8.660254e-01
    outer loop
      vertex   1.366004e+01 -5.000000e+00 1.366008e+01
      vertex   4.999961e+00 5.000000e+00 1.865998e+01
      vertex   4.999961e+00 -5.000000e+00 1.865998e+01
    endloop
  endfacet
  facet normal -0.000000e+00 8.881784e-17 1.000000e+00
    outer loop
      vertex   8.660078e+00 -5.000000e+00 4.999898e+00
      vertex   1.866000e+01 -5.000000e+00 4.999898e+00
      vertex   8.660078e+00 5.000000e+00 4.999898e+00
    endloop
  endfacet
  facet normal -8.881853e-17 0.000000e+00 1.000000e+00
    outer loop
      vertex   8.660078e+00 5.000000e+00 4.999898e+00
      vertex   1.866000e+01 -5.000000e+00 4.999898e+00
      vertex   1.866000e+01 5.000000e+00 4.999898e+00
    endloop
  endfacet
  facet normal 8.660254e-01 -0.000000e+00 5.000000e-01
    outer loop
      vertex   8.660078e+00 -5.000000e+00 -4.999898e+00
      vertex   1.366004e+01 -5.000000e+00 -1.366008e+01
      vertex   8.660078e+00 5.000000e+00 -4.999898e+00
    endloop
  endfacet
  facet normal 8.660254e-01 -2.599512e-18 5.000000e-01
    outer loop
      vertex   8.660078e+00 5.000000e+00 -4.999898e+00
      vertex   1.366004e+01 -5.000000e+00 -1.366008e+01
      vertex   1.366004e+01 5.000000e+00 -1.366008e+01
    endloop
  endfacet
  facet normal 5.000000e-01 0.000000e+00 -8.660254e-01
    outer loop
      vertex   1.366004e+01 -5.000000e+00 -1.366008e+01
      vertex   4.999961e+00 -5.000000e+00 -1.865998e+01
      vertex   1.366004e+01 5.000000e+00 -1.366008e+01
    endloop
  endfacet
  facet normal 5.000000e-01 -3.182447e-18 -8.660254e-01
    outer loop
      vertex   1.366004e+01 5.000000e+00 -1.366008e+01
      vertex   4.999961e+00 -5.000000e+00 -1.865998e+01
      vertex   4.999961e+00 5.000000e+00 -1.865998e+01
    endloop
  endfacet
  facet normal -8.660254e-01 -1.635710e-16 -5.000000e-01
    outer loop
      vertex   7.077672e-15 5.000000e+00 -9.999796e+00
      vertex   4.999961e+00 5.000000e+00 -1.865998e+01
      vertex   9.992007e-15 -5.000000e+00 -9.999796e+00
    endloop
  endfacet
  facet normal -8.660254e-01 2.120191e-17 -5.000000e-01
    outer loop
      vertex   9.992007e-15 -5.000000e+00 -9.999796e+00
      vertex   4.999961e+00 5.000000e+00 -1.865998e+01
      vertex   4.999961e+00 -5.000000e+00 -1.865998e+01
    endloop
  endfacet
  facet normal -1.000000e+00 -0.000000e+00 -0.000000e+00
    outer loop
      vertex   8.660000e+00 5.000000e+00 4.999853e+00
      vertex   8.660000e+00 5.000000e+00 -4.999853e+00
      vertex   8.660000e+00 -5.000000e+00 4.999853e+00
    endloop
  endfacet
  facet normal -1.000000e+00 0.000000e+00 0.000000e+00
    outer loop
      vertex   8.660000e+00 -5.000000e+00 4.999853e+00
      vertex   8.660000e+00 5.000000e+00 -4.999853e+00
      vertex   8.660000e+00 -5.000000e+00 -4.999853e+00
    endloop
  endfacet
  facet normal 0.000000e+00 0.000000e+00 -1.000000e+00
    outer loop
      vertex   8.660078e+00 5.000000e+00 -4.999898e+00
      vertex   1.866000e+01 5.000000e+00 -4.999898e+00
      vertex   8.660078e+00 -5.000000e+00 -4.999898e+00
    endloop
  endfacet
  facet normal 0.000000e+00 0.000000e+00 -1.000000e+00
    outer loop
      vertex   8.660078e+00 -5.000000e+00 -4.999898e+00
      vertex   1.866000e+01 5.000000e+00 -4.999898e+00
      vertex   1.866000e+01 -5.000000e+00 -4.999898e+00
    endloop
  endfacet
  facet normal 1.000000e+00 0.000000e+00 -0.000000e+00
    outer loop
      vertex   1.866000e+01 5.000000e+00 -4.999898e+00
      vertex   1.866000e+01 5.000000e+00 4.999898e+00
      vertex   1.866000e+01 -5.000000e+00 -4.999898e+00
    endloop
  endfacet
  facet normal 1.000000e+00 0.000000e+00 0.000000e+00
    outer loop
      vertex   1.866000e+01 -5.000000e+00 -4.999898e+00
      vertex   1.866000e+01 5.000000e+00 4.999898e+00
      vertex   1.866000e+01 -5.000000e+00 4.999898e+00
    endloop
  endfacet
  facet normal 0.000000e+00 1.000000e+00 0.000000e+00
    outer loop
      vertex   4.999961e+00 5.000000e+00 1.865998e+01
      vertex   1.366004e+01 5.000000e+00 1.366008e+01
      vertex   -1.665335e-15 5.000000e+00 9.999796e+00
    endloop
  endfacet
  facet normal -0.000000e+00 1.000000e+00 0.000000e+00
    outer loop
      vertex   -1.665335e-15 5.000000e+00 9.999796e+00
      vertex   1.366004e+01 5.000000e+00 1.366008e+01
      vertex   8.660078e+00 5.000000e+00 4.999898e+00
    endloop
  endfacet
  facet normal 0.000000e+00 1.000000e+00 0.000000e+00
    outer loop
      vertex   -1.665335e-15 5.000000e+00 9.999796e+00
      vertex   8.660078e+00 5.000000e+00 4.999898e+00
      vertex   -5.551115e-15 5.000000e+00 9.999707e+00
    endloop
  endfacet
  facet normal 0.000000e+00 1.000000e+00 0.000000e+00
    outer loop
      vertex   -5.551115e-15 5.000000e+00 9.999707e+00
      vertex   8.660078e+00 5.000000e+00 4.999898e+00
      vertex   8.660000e+00 5.000000e+00 4.999853e+00
    endloop
  endfacet
  facet normal -0.000000e+00 1.000000e+00 0.000000e+00
    outer loop
      vertex   8.660000e+00 5.000000e+00 4.999853e+00
      vertex   8.660078e+00 5.000000e+00 4.999898e+00
      vertex   8.660078e+00 5.000000e+00 -4.999898e+00
    endloop
  endfacet
  facet normal 0.000000e+00 1.000000e+00 0.000000e+00
    outer loop
      vertex   8.660000e+00 5.000000e+00 4.999853e+00
      vertex   8.660078e+00 5.000000e+00 -4.999898e+00
      vertex   8.660000e+00 5.000000e+00 -4.999853e+00
    endloop
  endfacet
  facet normal 0.000000e+00 1.000000e+00 0.000000e+00
    outer loop
      vertex   8.660000e+00 5.000000e+00 -4.999853e+00
      vertex   8.660078e+00 5.000000e+00 -4.999898e+00
      vertex   2.220446e-15 5.000000e+00 -9.999707e+00
    endloop
  endfacet
  facet normal -0.000000e+00 1.000000e+00 0.000000e+00
    outer loop
      vertex   2.220446e-15 5.000000e+00 -9.999707e+00
      vertex   8.660078e+00 5.000000e+00 -4.999898e+00
      vertex   7.077672e-15 5.000000e+00 -9.999796e+00
    endloop
  endfacet
  facet normal 0.000000e+00 1.000000e+00 0.000000e+00
    outer loop
      vertex   2.220446e-15 5.000000e+00 -9.999707e+00
      vertex   7.077672e-15 5.000000e+00 -9.999796e+00
      vertex   -8.660000e+00 5.000000e+00 -4.999853e+00
    endloop
  endfacet
  facet normal 0.000000e+00 1.000000e+00 0.000000e+00
    outer loop
      vertex   -8.660000e+00 5.000000e+00 -4.999853e+00
      vertex   7.077672e-15 5.000000e+00 -9.999796e+00
      vertex   -8.660078e+00 5.000000e+00 -4.999898e+00
    endloop
  endfacet
  facet normal 0.000000e+00 1.000000e+00 0.000000e+00
    outer loop
      vertex   -8.660000e+00 5.000000e+00 -4.999853e+00
      vertex   -8.660078e+00 5.000000e+00 -4.999898e+00
      vertex   -8.660078e+00 5.000000e+00 4.999898e+00
    endloop
  endfacet
  facet normal 0.000000e+00 1.000000e+00 0.000000e+00
    outer loop
      vertex   -8.660078e+00 5.000000e+00 4.999898e+00
      vertex   -8.660078e+00 5.000000e+00 -4.999898e+00
      vertex   -1.866000e+01 5.000000e+00 4.999898e+00
    endloop
  endfacet
  facet normal 0.000000e+00 1.000000e+00 0.000000e+00
    outer loop
      vertex   -1.866000e+01 5.000000e+00 4.999898e+00
      vertex   -8.660078e+00 5.000000e+00 -4.999898e+00
      vertex   -1.866000e+01 5.000000e+00 -4.999898e+00
    endloop
  endfacet
  facet normal 0.000000e+00 1.000000e+00 0.000000e+00
    outer loop
      vertex   1.866000e+01 5.000000e+00 4.999898e+00
      vertex   1.866000e+01 5.000000e+00 -4.999898e+00
      vertex   8.660078e+00 5.000000e+00 4.999898e+00
    endloop
  endfacet
  facet normal 0.000000e+00 1.000000e+00 0.000000e+00
    outer loop
      vertex   8.660078e+00 5.000000e+00 4.999898e+00
      vertex   1.866000e+01 5.000000e+00 -4.999898e+00
      vertex   8.660078e+00 5.000000e+00 -4.999898e+00
    endloop
  endfacet
  facet normal 0.000000e+00 1.000000e+00 0.000000e+00
    outer loop
      vertex   8.660078e+00 5.000000e+00 -4.999898e+00
      vertex   1.366004e+01 5.000000e+00 -1.366008e+01
      vertex   7.077672e-15 5.000000e+00 -9.999796e+00
    endloop
  endfacet
  facet normal 0.000000e+00 1.000000e+00 0.000000e+00
    outer loop
      vertex   7.077672e-15 5.000000e+00 -9.999796e+00
      vertex   1.366004e+01 5.000000e+00 -1.366008e+01
      vertex   4.999961e+00 5.000000e+00 -1.865998e+01
    endloop
  endfacet
  facet normal 0.000000e+00 1.000000e+00 -0.000000e+00
    outer loop
      vertex   -4.999961e+00 5.000000e+00 -1.865998e+01
      vertex   -1.366004e+01 5.000000e+00 -1.366008e+01
      vertex   7.077672e-15 5.000000e+00 -9.999796e+00
    endloop
  endfacet
  facet normal 0.000000e+00 1.000000e+00 0.000000e+00
    outer loop
      vertex   7.077672e-15 5.000000e+00 -9.999796e+00
      vertex   -1.366004e+01 5.000000e+00 -1.366008e+01
      vertex   -8.660078e+00 5.000000e+00 -4.999898e+00
    endloop
  endfacet
  facet normal 0.000000e+00 1.000000e+00 0.000000e+00
    outer loop
      vertex   -1.366004e+01 5.000000e+00 1.366008e+01
      vertex   -1.665335e-15 5.000000e+00 9.999796e+00
      vertex   -8.660078e+00 5.000000e+00 4.999898e+00
    endloop
  endfacet
  facet normal -0.000000e+00 1.000000e+00 0.000000e+00
    outer loop
      vertex   -8.660078e+00 5.000000e+00 4.999898e+00
      vertex   -1.665335e-15 5.000000e+00 9.999796e+00
      vertex   -8.660000e+00 5.000000e+00 4.999853e+00
    endloop
  endfacet
  facet normal 0.000000e+00 1.000000e+00 0.000000e+00
    outer loop
      vertex   -8.660078e+00 5.000000e+00 4.999898e+00
      vertex   -8.660000e+00 5.000000e+00 4.999853e+00
      vertex   -8.660000e+00 5.000000e+00 -4.999853e+00
    endloop
  endfacet
  facet normal -0.000000e+00 1.000000e+00 0.000000e+00
    outer loop
      vertex   -1.366004e+01 5.000000e+00 1.366008e+01
      vertex   -4.999961e+00 5.000000e+00 1.865998e+01
      vertex   -1.665335e-15 5.000000e+00 9.999796e+00
    endloop
  endfacet
  facet normal 0.000000e+00 1.000000e+00 -0.000000e+00
    outer loop
      vertex   -5.551115e-15 5.000000e+00 9.999707e+00
      vertex   -8.660000e+00 5.000000e+00 4.999853e+00
      vertex   -1.665335e-15 5.000000e+00 9.999796e+00
    endloop
  endfacet
  facet normal 0.000000e+00 0.000000e+00 -1.000000e+00
    outer loop
      vertex   -8.660078e+00 -5.000000e+00 -4.999898e+00
      vertex   -1.866000e+01 -5.000000e+00 -4.999898e+00
      vertex   -8.660078e+00 5.000000e+00 -4.999898e+00
    endloop
  endfacet
  facet normal -0.000000e+00 0.000000e+00 -1.000000e+00
    outer loop
      vertex   -8.660078e+00 5.000000e+00 -4.999898e+00
      vertex   -1.866000e+01 -5.000000e+00 -4.999898e+00
      vertex   -1.866000e+01 5.000000e+00 -4.999898e+00
    endloop
  endfacet
  facet normal -1.000000e+00 0.000000e+00 0.000000e+00
    outer loop
      vertex   -1.866000e+01 -5.000000e+00 -4.999898e+00
      vertex   -1.866000e+01 -5.000000e+00 4.999898e+00
      vertex   -1.866000e+01 5.000000e+00 -4.999898e+00
    endloop
  endfacet
  facet normal -1.000000e+00 0.000000e+00 0.000000e+00
    outer loop
      vertex   -1.866000e+01 5.000000e+00 -4.999898e+00
      vertex   -1.866000e+01 -5.000000e+00 4.999898e+00
      vertex   -1.866000e+01 5.000000e+00 4.999898e+00
    endloop
  endfacet
  facet normal 0.000000e+00 0.000000e+00 1.000000e+00
    outer loop
      vertex   -8.660078e+00 5.000000e+00 4.999898e+00
      vertex   -1.866000e+01 5.000000e+00 4.999898e+00
      vertex   -8.660078e+00 -5.000000e+00 4.999898e+00
    endloop
  endfacet
  facet normal 0.000000e+00 0.000000e+00 1.000000e+00
    outer loop
      vertex   -8.660078e+00 -5.000000e+00 4.999898e+00
      vertex   -1.866000e+01 5.000000e+00 4.999898e+00
      vertex   -1.866000e+01 -5.000000e+00 4.999898e+00
    endloop
  endfacet
endsolid
