solid ASCII
  facet normal 0.000000e+00 -1.000000e+00 0.000000e+00
    outer loop
      vertex   -1.416013e+01 -5.000000e+00 -1.452606e+01
      vertex   -5.499873e+00 -5.000000e+00 -1.952606e+01
      vertex   -1.366013e+01 -5.000000e+00 -1.366003e+01
    endloop
  endfacet
  facet normal 0.000000e+00 -1.000000e+00 0.000000e+00
    outer loop
      vertex   -1.366013e+01 -5.000000e+00 -1.366003e+01
      vertex   -5.499873e+00 -5.000000e+00 -1.952606e+01
      vertex   -4.999873e+00 -5.000000e+00 -1.866003e+01
    endloop
  endfacet
  facet normal -8.660254e-01 0.000000e+00 5.000000e-01
    outer loop
      vertex   -1.416013e+01 5.000000e+00 -1.452606e+01
      vertex   -1.416013e+01 -5.000000e+00 -1.452606e+01
      vertex   -1.366013e+01 5.000000e+00 -1.366003e+01
    endloop
  endfacet
  facet normal -8.660254e-01 0.000000e+00 5.000000e-01
    outer loop
      vertex   -1.366013e+01 5.000000e+00 -1.366003e+01
      vertex   -1.416013e+01 -5.000000e+00 -1.452606e+01
      vertex   -1.366013e+01 -5.000000e+00 -1.366003e+01
    endloop
  endfacet
  facet normal 0.000000e+00 1.000000e+00 -0.000000e+00
    outer loop
      vertex   -5.499873e+00 5.000000e+00 -1.952606e+01
      vertex   -1.416013e+01 5.000000e+00 -1.452606e+01
      vertex   -4.999873e+00 5.000000e+00 -1.866003e+01
    endloop
  endfacet
  facet normal 0.000000e+00 1.000000e+00 0.000000e+00
    outer loop
      vertex   -4.999873e+00 5.000000e+00 -1.866003e+01
      vertex   -1.416013e+01 5.000000e+00 -1.452606e+01
      vertex   -1.366013e+01 5.000000e+00 -1.366003e+01
    endloop
  endfacet
  facet normal 8.660254e-01 0.000000e+00 -5.000000e-01
    outer loop
      vertex   -5.499873e+00 -5.000000e+00 -1.952606e+01
      vertex   -5.499873e+00 5.000000e+00 -1.952606e+01
      vertex   -4.999873e+00 -5.000000e+00 -1.866003e+01
    endloop
  endfacet
  facet normal 8.660254e-01 0.000000e+00 -5.000000e-01
    outer loop
      vertex   -4.999873e+00 -5.000000e+00 -1.866003e+01
      vertex   -5.499873e+00 5.000000e+00 -1.952606e+01
      vertex   -4.999873e+00 5.000000e+00 -1.866003e+01
    endloop
  endfacet
  facet normal 5.000000e-01 0.000000e+00 8.660254e-01
    outer loop
      vertex   -4.999873e+00 5.000000e+00 -1.866003e+01
      vertex   -1.366013e+01 5.000000e+00 -1.366003e+01
      vertex   -4.999873e+00 -5.000000e+00 -1.866003e+01
    endloop
  endfacet
  facet normal 5.000000e-01 -2.862811e-17 8.660254e-01
    outer loop
      vertex   -4.999873e+00 -5.000000e+00 -1.866003e+01
      vertex   -1.366013e+01 5.000000e+00 -1.366003e+01
      vertex   -1.366013e+01 -5.000000e+00 -1.366003e+01
    endloop
  endfacet
  facet normal -5.000000e-01 -0.000000e+00 -8.660254e-01
    outer loop
      vertex   -5.499873e+00 5.000000e+00 -1.952606e+01
      vertex   -5.499873e+00 -5.000000e+00 -1.952606e+01
      vertex   -1.416013e+01 5.000000e+00 -1.452606e+01
    endloop
  endfacet
  facet normal -5.000000e-01 -0.000000e+00 -8.660254e-01
    outer loop
      vertex   -1.416013e+01 5.000000e+00 -1.452606e+01
      vertex   -5.499873e+00 -5.000000e+00 -1.952606e+01
      vertex   -1.416013e+01 -5.000000e+00 -1.452606e+01
    endloop
  endfacet
endsolid
