solid ASCII
  facet normal 0.000000e+00 0.000000e+00 -1.000000e+00
    outer loop
      vertex   2.500000e+01 5.000000e+00 -2.500000e+01
      vertex   -2.500000e+01 5.000000e+00 -2.500000e+01
      vertex   2.500000e+01 2.000000e+01 -2.500000e+01
    endloop
  endfacet
  facet normal -0.000000e+00 0.000000e+00 -1.000000e+00
    outer loop
      vertex   2.500000e+01 2.000000e+01 -2.500000e+01
      vertex   -2.500000e+01 5.000000e+00 -2.500000e+01
      vertex   -2.500000e+01 2.000000e+01 -2.500000e+01
    endloop
  endfacet
  facet normal -5.960464e-09 0.000000e+00 1.000000e+00
    outer loop
      vertex   -2.500000e+01 5.000000e+00 2.500000e+01
      vertex   2.500000e+01 5.000000e+00 2.500000e+01
      vertex   -2.500000e+01 2.000000e+01 2.500000e+01
    endloop
  endfacet
  facet normal -5.960464e-09 0.000000e+00 1.000000e+00
    outer loop
      vertex   -2.500000e+01 2.000000e+01 2.500000e+01
      vertex   2.500000e+01 5.000000e+00 2.500000e+01
      vertex   2.500000e+01 2.000000e+01 2.500000e+01
    endloop
  endfacet
  facet normal -1.000000e+00 0.000000e+00 0.000000e+00
    outer loop
      vertex   -2.500000e+01 5.000000e+00 -2.500000e+01
      vertex   -2.500000e+01 5.000000e+00 2.500000e+01
      vertex   -2.500000e+01 2.000000e+01 -2.500000e+01
    endloop
  endfacet
  facet normal -1.000000e+00 0.000000e+00 0.000000e+00
    outer loop
      vertex   -2.500000e+01 2.000000e+01 -2.500000e+01
      vertex   -2.500000e+01 5.000000e+00 2.500000e+01
      vertex   -2.500000e+01 2.000000e+01 2.500000e+01
    endloop
  endfacet
  facet normal 1.000000e+00 0.000000e+00 -5.960464e-09
    outer loop
      vertex   2.500000e+01 5.000000e+00 2.500000e+01
      vertex   2.500000e+01 5.000000e+00 -2.500000e+01
      vertex   2.500000e+01 2.000000e+01 2.500000e+01
    endloop
  endfacet
  facet normal 1.000000e+00 0.000000e+00 -5.960464e-09
    outer loop
      vertex   2.500000e+01 2.000000e+01 2.500000e+01
      vertex   2.500000e+01 5.000000e+00 -2.500000e+01
      vertex   2.500000e+01 2.000000e+01 -2.500000e+01
    endloop
  endfacet
  facet normal 9.977669e-01 -0.000000e+00 6.679263e-02
    outer loop
      vertex   -4.955387e+00 5.000000e+00 -6.664348e-01
      vertex   -4.955387e+00 2.000000e+01 -6.664348e-01
      vertex   -5.000000e+00 5.000000e+00 6.123234e-16
    endloop
  endfacet
  facet normal 9.977669e-01 5.453159e-18 6.679263e-02
    outer loop
      vertex   -5.000000e+00 5.000000e+00 6.123234e-16
      vertex   -4.955387e+00 2.000000e+01 -6.664348e-01
      vertex   -5.000000e+00 2.000000e+01 -6.123234e-16
    endloop
  endfacet
  facet normal 9.977669e-01 -5.453159e-18 -6.679263e-02
    outer loop
      vertex   -5.000000e+00 5.000000e+00 6.123234e-16
      vertex   -5.000000e+00 2.000000e+01 -6.123234e-16
      vertex   -4.955387e+00 5.000000e+00 6.664348e-01
    endloop
  endfacet
  facet normal 9.977669e-01 0.000000e+00 -6.679263e-02
    outer loop
      vertex   -4.955387e+00 5.000000e+00 6.664348e-01
      vertex   -5.000000e+00 2.000000e+01 -6.123234e-16
      vertex   -4.955387e+00 2.000000e+01 6.664348e-01
    endloop
  endfacet
  facet normal 9.799617e-01 0.000000e+00 -1.991860e-01
    outer loop
      vertex   -4.955387e+00 5.000000e+00 6.664348e-01
      vertex   -4.955387e+00 2.000000e+01 6.664348e-01
      vertex   -4.822346e+00 5.000000e+00 1.320977e+00
    endloop
  endfacet
  facet normal 9.799617e-01 0.000000e+00 -1.991860e-01
    outer loop
      vertex   -4.822346e+00 5.000000e+00 1.320977e+00
      vertex   -4.955387e+00 2.000000e+01 6.664348e-01
      vertex   -4.822346e+00 2.000000e+01 1.320977e+00
    endloop
  endfacet
  facet normal 9.446691e-01 0.000000e+00 -3.280249e-01
    outer loop
      vertex   -4.822346e+00 5.000000e+00 1.320977e+00
      vertex   -4.822346e+00 2.000000e+01 1.320977e+00
      vertex   -4.603249e+00 5.000000e+00 1.951946e+00
    endloop
  endfacet
  facet normal 9.446691e-01 0.000000e+00 -3.280249e-01
    outer loop
      vertex   -4.603249e+00 5.000000e+00 1.951946e+00
      vertex   -4.822346e+00 2.000000e+01 1.320977e+00
      vertex   -4.603249e+00 2.000000e+01 1.951946e+00
    endloop
  endfacet
  facet normal 8.925188e-01 0.000000e+00 -4.510101e-01
    outer loop
      vertex   -4.603249e+00 5.000000e+00 1.951946e+00
      vertex   -4.603249e+00 2.000000e+01 1.951946e+00
      vertex   -4.302008e+00 5.000000e+00 2.548083e+00
    endloop
  endfacet
  facet normal 8.925188e-01 0.000000e+00 -4.510101e-01
    outer loop
      vertex   -4.302008e+00 5.000000e+00 2.548083e+00
      vertex   -4.603249e+00 2.000000e+01 1.951946e+00
      vertex   -4.302008e+00 2.000000e+01 2.548083e+00
    endloop
  endfacet
  facet normal 8.244416e-01 0.000000e+00 -5.659471e-01
    outer loop
      vertex   -4.302008e+00 5.000000e+00 2.548083e+00
      vertex   -4.302008e+00 2.000000e+01 2.548083e+00
      vertex   -3.923997e+00 5.000000e+00 3.098749e+00
    endloop
  endfacet
  facet normal 8.244416e-01 0.000000e+00 -5.659471e-01
    outer loop
      vertex   -3.923997e+00 5.000000e+00 3.098749e+00
      vertex   -4.302008e+00 2.000000e+01 2.548083e+00
      vertex   -3.923997e+00 2.000000e+01 3.098749e+00
    endloop
  endfacet
  facet normal 7.416521e-01 0.000000e+00 -6.707847e-01
    outer loop
      vertex   -3.923997e+00 5.000000e+00 3.098749e+00
      vertex   -3.923997e+00 2.000000e+01 3.098749e+00
      vertex   -3.475962e+00 5.000000e+00 3.594118e+00
    endloop
  endfacet
  facet normal 7.416521e-01 -2.825160e-17 -6.707847e-01
    outer loop
      vertex   -3.475962e+00 5.000000e+00 3.594118e+00
      vertex   -3.923997e+00 2.000000e+01 3.098749e+00
      vertex   -3.475962e+00 2.000000e+01 3.594118e+00
    endloop
  endfacet
  facet normal 6.456279e-01 -8.631757e-18 -7.636522e-01
    outer loop
      vertex   -3.475962e+00 5.000000e+00 3.594118e+00
      vertex   -3.475962e+00 2.000000e+01 3.594118e+00
      vertex   -2.965899e+00 5.000000e+00 4.025350e+00
    endloop
  endfacet
  facet normal 6.456279e-01 -1.397689e-17 -7.636522e-01
    outer loop
      vertex   -2.965899e+00 5.000000e+00 4.025350e+00
      vertex   -3.475962e+00 2.000000e+01 3.594118e+00
      vertex   -2.965899e+00 2.000000e+01 4.025350e+00
    endloop
  endfacet
  facet normal 5.380824e-01 -3.609675e-17 -8.428923e-01
    outer loop
      vertex   -2.965899e+00 5.000000e+00 4.025350e+00
      vertex   -2.965899e+00 2.000000e+01 4.025350e+00
      vertex   -2.402909e+00 5.000000e+00 4.384750e+00
    endloop
  endfacet
  facet normal 5.380824e-01 2.974294e-17 -8.428923e-01
    outer loop
      vertex   -2.402909e+00 5.000000e+00 4.384750e+00
      vertex   -2.965899e+00 2.000000e+01 4.025350e+00
      vertex   -2.402909e+00 2.000000e+01 4.384750e+00
    endloop
  endfacet
  facet normal 4.209348e-01 8.600290e-18 -9.070909e-01
    outer loop
      vertex   -2.402909e+00 5.000000e+00 4.384750e+00
      vertex   -2.402909e+00 2.000000e+01 4.384750e+00
      vertex   -1.797039e+00 5.000000e+00 4.665903e+00
    endloop
  endfacet
  facet normal 4.209348e-01 8.600290e-18 -9.070909e-01
    outer loop
      vertex   -1.797039e+00 5.000000e+00 4.665903e+00
      vertex   -2.402909e+00 2.000000e+01 4.384750e+00
      vertex   -1.797039e+00 2.000000e+01 4.665903e+00
    endloop
  endfacet
  facet normal 2.962756e-01 -1.269583e-17 -9.551025e-01
    outer loop
      vertex   -1.797039e+00 5.000000e+00 4.665903e+00
      vertex   -1.797039e+00 2.000000e+01 4.665903e+00
      vertex   -1.159101e+00 5.000000e+00 4.863793e+00
    endloop
  endfacet
  facet normal 2.962756e-01 -1.269583e-17 -9.551025e-01
    outer loop
      vertex   -1.159101e+00 5.000000e+00 4.863793e+00
      vertex   -1.797039e+00 2.000000e+01 4.665903e+00
      vertex   -1.159101e+00 2.000000e+01 4.863793e+00
    endloop
  endfacet
  facet normal 1.663294e-01 -3.376540e-17 -9.860703e-01
    outer loop
      vertex   -1.159101e+00 5.000000e+00 4.863793e+00
      vertex   -1.159101e+00 2.000000e+01 4.863793e+00
      vertex   -5.004785e-01 5.000000e+00 4.974889e+00
    endloop
  endfacet
  facet normal 1.663294e-01 1.107976e-17 -9.860703e-01
    outer loop
      vertex   -5.004785e-01 5.000000e+00 4.974889e+00
      vertex   -1.159101e+00 2.000000e+01 4.863793e+00
      vertex   -5.004785e-01 2.000000e+01 4.974889e+00
    endloop
  endfacet
  facet normal 3.341498e-02 2.225885e-18 -9.994416e-01
    outer loop
      vertex   -5.004785e-01 5.000000e+00 4.974889e+00
      vertex   -5.004785e-01 2.000000e+01 4.974889e+00
      vertex   1.670749e-01 5.000000e+00 4.997208e+00
    endloop
  endfacet
  facet normal 3.341498e-02 2.473205e-18 -9.994416e-01
    outer loop
      vertex   1.670749e-01 5.000000e+00 4.997208e+00
      vertex   -5.004785e-01 2.000000e+01 4.974889e+00
      vertex   1.670749e-01 2.000000e+01 4.997208e+00
    endloop
  endfacet
  facet normal -1.000957e-01 -7.408569e-18 -9.949778e-01
    outer loop
      vertex   1.670749e-01 5.000000e+00 4.997208e+00
      vertex   1.670749e-01 2.000000e+01 4.997208e+00
      vertex   8.316468e-01 5.000000e+00 4.930351e+00
    endloop
  endfacet
  facet normal -1.000957e-01 -7.408569e-18 -9.949778e-01
    outer loop
      vertex   8.316468e-01 5.000000e+00 4.930351e+00
      vertex   1.670749e-01 2.000000e+01 4.997208e+00
      vertex   8.316468e-01 2.000000e+01 4.930351e+00
    endloop
  endfacet
  facet normal -2.318202e-01 -1.715814e-17 -9.727587e-01
    outer loop
      vertex   8.316468e-01 5.000000e+00 4.930351e+00
      vertex   8.316468e-01 2.000000e+01 4.930351e+00
      vertex   1.481378e+00 5.000000e+00 4.775512e+00
    endloop
  endfacet
  facet normal -2.318202e-01 0.000000e+00 -9.727587e-01
    outer loop
      vertex   1.481378e+00 5.000000e+00 4.775512e+00
      vertex   8.316468e-01 2.000000e+01 4.930351e+00
      vertex   1.481378e+00 2.000000e+01 4.775512e+00
    endloop
  endfacet
  facet normal -3.594078e-01 0.000000e+00 -9.331806e-01
    outer loop
      vertex   1.481378e+00 5.000000e+00 4.775512e+00
      vertex   1.481378e+00 2.000000e+01 4.775512e+00
      vertex   2.104674e+00 5.000000e+00 4.535455e+00
    endloop
  endfacet
  facet normal -3.594078e-01 0.000000e+00 -9.331806e-01
    outer loop
      vertex   2.104674e+00 5.000000e+00 4.535455e+00
      vertex   1.481378e+00 2.000000e+01 4.775512e+00
      vertex   2.104674e+00 2.000000e+01 4.535455e+00
    endloop
  endfacet
  facet normal -4.805818e-01 0.000000e+00 -8.769499e-01
    outer loop
      vertex   2.104674e+00 5.000000e+00 4.535455e+00
      vertex   2.104674e+00 2.000000e+01 4.535455e+00
      vertex   2.690412e+00 5.000000e+00 4.214461e+00
    endloop
  endfacet
  facet normal -4.805818e-01 0.000000e+00 -8.769499e-01
    outer loop
      vertex   2.690412e+00 5.000000e+00 4.214461e+00
      vertex   2.104674e+00 2.000000e+01 4.535455e+00
      vertex   2.690412e+00 2.000000e+01 4.214461e+00
    endloop
  endfacet
  facet normal -5.931797e-01 0.000000e+00 -8.050701e-01
    outer loop
      vertex   2.690412e+00 5.000000e+00 4.214461e+00
      vertex   2.690412e+00 2.000000e+01 4.214461e+00
      vertex   3.228139e+00 5.000000e+00 3.818261e+00
    endloop
  endfacet
  facet normal -5.931797e-01 0.000000e+00 -8.050701e-01
    outer loop
      vertex   3.228139e+00 5.000000e+00 3.818261e+00
      vertex   2.690412e+00 2.000000e+01 4.214461e+00
      vertex   3.228139e+00 2.000000e+01 3.818261e+00
    endloop
  endfacet
  facet normal -6.951924e-01 0.000000e+00 -7.188237e-01
    outer loop
      vertex   3.228139e+00 5.000000e+00 3.818261e+00
      vertex   3.228139e+00 2.000000e+01 3.818261e+00
      vertex   3.708261e+00 5.000000e+00 3.353924e+00
    endloop
  endfacet
  facet normal -6.951924e-01 0.000000e+00 -7.188237e-01
    outer loop
      vertex   3.708261e+00 5.000000e+00 3.353924e+00
      vertex   3.228139e+00 2.000000e+01 3.818261e+00
      vertex   3.708261e+00 2.000000e+01 3.353924e+00
    endloop
  endfacet
  facet normal -7.847994e-01 0.000000e+00 -6.197499e-01
    outer loop
      vertex   3.708261e+00 5.000000e+00 3.353924e+00
      vertex   3.708261e+00 2.000000e+01 3.353924e+00
      vertex   4.122208e+00 5.000000e+00 2.829735e+00
    endloop
  endfacet
  facet normal -7.847994e-01 0.000000e+00 -6.197499e-01
    outer loop
      vertex   4.122208e+00 5.000000e+00 2.829735e+00
      vertex   3.708261e+00 2.000000e+01 3.353924e+00
      vertex   4.122208e+00 2.000000e+01 2.829735e+00
    endloop
  endfacet
  facet normal -8.604016e-01 0.000000e+00 -5.096166e-01
    outer loop
      vertex   4.122208e+00 5.000000e+00 2.829735e+00
      vertex   4.122208e+00 2.000000e+01 2.829735e+00
      vertex   4.462594e+00 5.000000e+00 2.255051e+00
    endloop
  endfacet
  facet normal -8.604016e-01 9.404726e-18 -5.096166e-01
    outer loop
      vertex   4.462594e+00 5.000000e+00 2.255051e+00
      vertex   4.122208e+00 2.000000e+01 2.829735e+00
      vertex   4.462594e+00 2.000000e+01 2.255051e+00
    endloop
  endfacet
  facet normal -9.206499e-01 -8.282047e-18 -3.903893e-01
    outer loop
      vertex   4.462594e+00 5.000000e+00 2.255051e+00
      vertex   4.462594e+00 2.000000e+01 2.255051e+00
      vertex   4.723345e+00 5.000000e+00 1.640124e+00
    endloop
  endfacet
  facet normal -9.206499e-01 0.000000e+00 -3.903893e-01
    outer loop
      vertex   4.723345e+00 5.000000e+00 1.640124e+00
      vertex   4.462594e+00 2.000000e+01 2.255051e+00
      vertex   4.723345e+00 2.000000e+01 1.640124e+00
    endloop
  endfacet
  facet normal -9.644692e-01 0.000000e+00 -2.641954e-01
    outer loop
      vertex   4.723345e+00 5.000000e+00 1.640124e+00
      vertex   4.723345e+00 2.000000e+01 1.640124e+00
      vertex   4.899809e+00 5.000000e+00 9.959299e-01
    endloop
  endfacet
  facet normal -9.644692e-01 0.000000e+00 -2.641954e-01
    outer loop
      vertex   4.899809e+00 5.000000e+00 9.959299e-01
      vertex   4.723345e+00 2.000000e+01 1.640124e+00
      vertex   4.899809e+00 2.000000e+01 9.959299e-01
    endloop
  endfacet
  facet normal -9.910775e-01 0.000000e+00 -1.332870e-01
    outer loop
      vertex   4.899809e+00 5.000000e+00 9.959299e-01
      vertex   4.899809e+00 2.000000e+01 9.959299e-01
      vertex   4.988834e+00 5.000000e+00 3.339632e-01
    endloop
  endfacet
  facet normal -9.910775e-01 0.000000e+00 -1.332870e-01
    outer loop
      vertex   4.988834e+00 5.000000e+00 3.339632e-01
      vertex   4.899809e+00 2.000000e+01 9.959299e-01
      vertex   4.988834e+00 2.000000e+01 3.339632e-01
    endloop
  endfacet
  facet normal -1.000000e+00 0.000000e+00 0.000000e+00
    outer loop
      vertex   4.988834e+00 5.000000e+00 3.339632e-01
      vertex   4.988834e+00 2.000000e+01 3.339632e-01
      vertex   4.988834e+00 5.000000e+00 -3.339632e-01
    endloop
  endfacet
  facet normal -1.000000e+00 0.000000e+00 0.000000e+00
    outer loop
      vertex   4.988834e+00 5.000000e+00 -3.339632e-01
      vertex   4.988834e+00 2.000000e+01 3.339632e-01
      vertex   4.988834e+00 2.000000e+01 -3.339632e-01
    endloop
  endfacet
  facet normal -9.910775e-01 0.000000e+00 1.332870e-01
    outer loop
      vertex   4.988834e+00 5.000000e+00 -3.339632e-01
      vertex   4.988834e+00 2.000000e+01 -3.339632e-01
      vertex   4.899809e+00 5.000000e+00 -9.959299e-01
    endloop
  endfacet
  facet normal -9.910775e-01 0.000000e+00 1.332870e-01
    outer loop
      vertex   4.899809e+00 5.000000e+00 -9.959299e-01
      vertex   4.988834e+00 2.000000e+01 -3.339632e-01
      vertex   4.899809e+00 2.000000e+01 -9.959299e-01
    endloop
  endfacet
  facet normal -9.644692e-01 0.000000e+00 2.641954e-01
    outer loop
      vertex   4.899809e+00 5.000000e+00 -9.959299e-01
      vertex   4.899809e+00 2.000000e+01 -9.959299e-01
      vertex   4.723345e+00 5.000000e+00 -1.640124e+00
    endloop
  endfacet
  facet normal -9.644692e-01 0.000000e+00 2.641954e-01
    outer loop
      vertex   4.723345e+00 5.000000e+00 -1.640124e+00
      vertex   4.899809e+00 2.000000e+01 -9.959299e-01
      vertex   4.723345e+00 2.000000e+01 -1.640124e+00
    endloop
  endfacet
  facet normal -9.206499e-01 0.000000e+00 3.903893e-01
    outer loop
      vertex   4.723345e+00 5.000000e+00 -1.640124e+00
      vertex   4.723345e+00 2.000000e+01 -1.640124e+00
      vertex   4.462594e+00 5.000000e+00 -2.255051e+00
    endloop
  endfacet
  facet normal -9.206499e-01 8.282047e-18 3.903893e-01
    outer loop
      vertex   4.462594e+00 5.000000e+00 -2.255051e+00
      vertex   4.723345e+00 2.000000e+01 -1.640124e+00
      vertex   4.462594e+00 2.000000e+01 -2.255051e+00
    endloop
  endfacet
  facet normal -8.604016e-01 -9.404726e-18 5.096166e-01
    outer loop
      vertex   4.462594e+00 5.000000e+00 -2.255051e+00
      vertex   4.462594e+00 2.000000e+01 -2.255051e+00
      vertex   4.122208e+00 5.000000e+00 -2.829735e+00
    endloop
  endfacet
  facet normal -8.604016e-01 0.000000e+00 5.096166e-01
    outer loop
      vertex   4.122208e+00 5.000000e+00 -2.829735e+00
      vertex   4.462594e+00 2.000000e+01 -2.255051e+00
      vertex   4.122208e+00 2.000000e+01 -2.829735e+00
    endloop
  endfacet
  facet normal -7.847994e-01 0.000000e+00 6.197499e-01
    outer loop
      vertex   4.122208e+00 5.000000e+00 -2.829735e+00
      vertex   4.122208e+00 2.000000e+01 -2.829735e+00
      vertex   3.708261e+00 5.000000e+00 -3.353924e+00
    endloop
  endfacet
  facet normal -7.847994e-01 0.000000e+00 6.197499e-01
    outer loop
      vertex   3.708261e+00 5.000000e+00 -3.353924e+00
      vertex   4.122208e+00 2.000000e+01 -2.829735e+00
      vertex   3.708261e+00 2.000000e+01 -3.353924e+00
    endloop
  endfacet
  facet normal -6.951924e-01 0.000000e+00 7.188237e-01
    outer loop
      vertex   3.708261e+00 5.000000e+00 -3.353924e+00
      vertex   3.708261e+00 2.000000e+01 -3.353924e+00
      vertex   3.228139e+00 5.000000e+00 -3.818261e+00
    endloop
  endfacet
  facet normal -6.951924e-01 0.000000e+00 7.188237e-01
    outer loop
      vertex   3.228139e+00 5.000000e+00 -3.818261e+00
      vertex   3.708261e+00 2.000000e+01 -3.353924e+00
      vertex   3.228139e+00 2.000000e+01 -3.818261e+00
    endloop
  endfacet
  facet normal -5.931797e-01 0.000000e+00 8.050701e-01
    outer loop
      vertex   3.228139e+00 5.000000e+00 -3.818261e+00
      vertex   3.228139e+00 2.000000e+01 -3.818261e+00
      vertex   2.690412e+00 5.000000e+00 -4.214461e+00
    endloop
  endfacet
  facet normal -5.931797e-01 0.000000e+00 8.050701e-01
    outer loop
      vertex   2.690412e+00 5.000000e+00 -4.214461e+00
      vertex   3.228139e+00 2.000000e+01 -3.818261e+00
      vertex   2.690412e+00 2.000000e+01 -4.214461e+00
    endloop
  endfacet
  facet normal -4.805818e-01 0.000000e+00 8.769499e-01
    outer loop
      vertex   2.690412e+00 5.000000e+00 -4.214461e+00
      vertex   2.690412e+00 2.000000e+01 -4.214461e+00
      vertex   2.104674e+00 5.000000e+00 -4.535455e+00
    endloop
  endfacet
  facet normal -4.805818e-01 0.000000e+00 8.769499e-01
    outer loop
      vertex   2.104674e+00 5.000000e+00 -4.535455e+00
      vertex   2.690412e+00 2.000000e+01 -4.214461e+00
      vertex   2.104674e+00 2.000000e+01 -4.535455e+00
    endloop
  endfacet
  facet normal -3.594078e-01 0.000000e+00 9.331806e-01
    outer loop
      vertex   2.104674e+00 5.000000e+00 -4.535455e+00
      vertex   2.104674e+00 2.000000e+01 -4.535455e+00
      vertex   1.481378e+00 5.000000e+00 -4.775512e+00
    endloop
  endfacet
  facet normal -3.594078e-01 0.000000e+00 9.331806e-01
    outer loop
      vertex   1.481378e+00 5.000000e+00 -4.775512e+00
      vertex   2.104674e+00 2.000000e+01 -4.535455e+00
      vertex   1.481378e+00 2.000000e+01 -4.775512e+00
    endloop
  endfacet
  facet normal -2.318202e-01 0.000000e+00 9.727587e-01
    outer loop
      vertex   1.481378e+00 5.000000e+00 -4.775512e+00
      vertex   1.481378e+00 2.000000e+01 -4.775512e+00
      vertex   8.316468e-01 5.000000e+00 -4.930351e+00
    endloop
  endfacet
  facet normal -2.318202e-01 1.715814e-17 9.727587e-01
    outer loop
      vertex   8.316468e-01 5.000000e+00 -4.930351e+00
      vertex   1.481378e+00 2.000000e+01 -4.775512e+00
      vertex   8.316468e-01 2.000000e+01 -4.930351e+00
    endloop
  endfacet
  facet normal -1.000957e-01 7.408569e-18 9.949778e-01
    outer loop
      vertex   8.316468e-01 5.000000e+00 -4.930351e+00
      vertex   8.316468e-01 2.000000e+01 -4.930351e+00
      vertex   1.670749e-01 5.000000e+00 -4.997208e+00
    endloop
  endfacet
  facet normal -1.000957e-01 7.408569e-18 9.949778e-01
    outer loop
      vertex   1.670749e-01 5.000000e+00 -4.997208e+00
      vertex   8.316468e-01 2.000000e+01 -4.930351e+00
      vertex   1.670749e-01 2.000000e+01 -4.997208e+00
    endloop
  endfacet
  facet normal 3.341498e-02 -2.473205e-18 9.994416e-01
    outer loop
      vertex   1.670749e-01 5.000000e+00 -4.997208e+00
      vertex   1.670749e-01 2.000000e+01 -4.997208e+00
      vertex   -5.004785e-01 5.000000e+00 -4.974889e+00
    endloop
  endfacet
  facet normal 3.341498e-02 -2.225885e-18 9.994416e-01
    outer loop
      vertex   -5.004785e-01 5.000000e+00 -4.974889e+00
      vertex   1.670749e-01 2.000000e+01 -4.997208e+00
      vertex   -5.004785e-01 2.000000e+01 -4.974889e+00
    endloop
  endfacet
  facet normal 1.663294e-01 -1.107976e-17 9.860703e-01
    outer loop
      vertex   -5.004785e-01 5.000000e+00 -4.974889e+00
      vertex   -5.004785e-01 2.000000e+01 -4.974889e+00
      vertex   -1.159101e+00 5.000000e+00 -4.863793e+00
    endloop
  endfacet
  facet normal 1.663294e-01 3.376540e-17 9.860703e-01
    outer loop
      vertex   -1.159101e+00 5.000000e+00 -4.863793e+00
      vertex   -5.004785e-01 2.000000e+01 -4.974889e+00
      vertex   -1.159101e+00 2.000000e+01 -4.863793e+00
    endloop
  endfacet
  facet normal 2.962756e-01 1.269583e-17 9.551025e-01
    outer loop
      vertex   -1.159101e+00 5.000000e+00 -4.863793e+00
      vertex   -1.159101e+00 2.000000e+01 -4.863793e+00
      vertex   -1.797039e+00 5.000000e+00 -4.665903e+00
    endloop
  endfacet
  facet normal 2.962756e-01 1.269583e-17 9.551025e-01
    outer loop
      vertex   -1.797039e+00 5.000000e+00 -4.665903e+00
      vertex   -1.159101e+00 2.000000e+01 -4.863793e+00
      vertex   -1.797039e+00 2.000000e+01 -4.665903e+00
    endloop
  endfacet
  facet normal 4.209348e-01 -8.600290e-18 9.070909e-01
    outer loop
      vertex   -1.797039e+00 5.000000e+00 -4.665903e+00
      vertex   -1.797039e+00 2.000000e+01 -4.665903e+00
      vertex   -2.402909e+00 5.000000e+00 -4.384750e+00
    endloop
  endfacet
  facet normal 4.209348e-01 -8.600290e-18 9.070909e-01
    outer loop
      vertex   -2.402909e+00 5.000000e+00 -4.384750e+00
      vertex   -1.797039e+00 2.000000e+01 -4.665903e+00
      vertex   -2.402909e+00 2.000000e+01 -4.384750e+00
    endloop
  endfacet
  facet normal 5.380824e-01 -2.974294e-17 8.428923e-01
    outer loop
      vertex   -2.402909e+00 5.000000e+00 -4.384750e+00
      vertex   -2.402909e+00 2.000000e+01 -4.384750e+00
      vertex   -2.965899e+00 5.000000e+00 -4.025350e+00
    endloop
  endfacet
  facet normal 5.380824e-01 3.609675e-17 8.428923e-01
    outer loop
      vertex   -2.965899e+00 5.000000e+00 -4.025350e+00
      vertex   -2.402909e+00 2.000000e+01 -4.384750e+00
      vertex   -2.965899e+00 2.000000e+01 -4.025350e+00
    endloop
  endfacet
  facet normal 6.456279e-01 1.397689e-17 7.636522e-01
    outer loop
      vertex   -2.965899e+00 5.000000e+00 -4.025350e+00
      vertex   -2.965899e+00 2.000000e+01 -4.025350e+00
      vertex   -3.475962e+00 5.000000e+00 -3.594118e+00
    endloop
  endfacet
  facet normal 6.456279e-01 8.631757e-18 7.636522e-01
    outer loop
      vertex   -3.475962e+00 5.000000e+00 -3.594118e+00
      vertex   -2.965899e+00 2.000000e+01 -4.025350e+00
      vertex   -3.475962e+00 2.000000e+01 -3.594118e+00
    endloop
  endfacet
  facet normal 7.416521e-01 2.825160e-17 6.707847e-01
    outer loop
      vertex   -3.475962e+00 5.000000e+00 -3.594118e+00
      vertex   -3.475962e+00 2.000000e+01 -3.594118e+00
      vertex   -3.923997e+00 5.000000e+00 -3.098749e+00
    endloop
  endfacet
  facet normal 7.416521e-01 -0.000000e+00 6.707847e-01
    outer loop
      vertex   -3.923997e+00 5.000000e+00 -3.098749e+00
      vertex   -3.475962e+00 2.000000e+01 -3.594118e+00
      vertex   -3.923997e+00 2.000000e+01 -3.098749e+00
    endloop
  endfacet
  facet normal 8.244416e-01 -0.000000e+00 5.659471e-01
    outer loop
      vertex   -3.923997e+00 5.000000e+00 -3.098749e+00
      vertex   -3.923997e+00 2.000000e+01 -3.098749e+00
      vertex   -4.302008e+00 5.000000e+00 -2.548083e+00
    endloop
  endfacet
  facet normal 8.244416e-01 -0.000000e+00 5.659471e-01
    outer loop
      vertex   -4.302008e+00 5.000000e+00 -2.548083e+00
      vertex   -3.923997e+00 2.000000e+01 -3.098749e+00
      vertex   -4.302008e+00 2.000000e+01 -2.548083e+00
    endloop
  endfacet
  facet normal 8.925188e-01 -0.000000e+00 4.510101e-01
    outer loop
      vertex   -4.302008e+00 5.000000e+00 -2.548083e+00
      vertex   -4.302008e+00 2.000000e+01 -2.548083e+00
      vertex   -4.603249e+00 5.000000e+00 -1.951946e+00
    endloop
  endfacet
  facet normal 8.925188e-01 -0.000000e+00 4.510101e-01
    outer loop
      vertex   -4.603249e+00 5.000000e+00 -1.951946e+00
      vertex   -4.302008e+00 2.000000e+01 -2.548083e+00
      vertex   -4.603249e+00 2.000000e+01 -1.951946e+00
    endloop
  endfacet
  facet normal 9.446691e-01 -0.000000e+00 3.280249e-01
    outer loop
      vertex   -4.603249e+00 5.000000e+00 -1.951946e+00
      vertex   -4.603249e+00 2.000000e+01 -1.951946e+00
      vertex   -4.822346e+00 5.000000e+00 -1.320977e+00
    endloop
  endfacet
  facet normal 9.446691e-01 -0.000000e+00 3.280249e-01
    outer loop
      vertex   -4.822346e+00 5.000000e+00 -1.320977e+00
      vertex   -4.603249e+00 2.000000e+01 -1.951946e+00
      vertex   -4.822346e+00 2.000000e+01 -1.320977e+00
    endloop
  endfacet
  facet normal 9.799617e-01 -0.000000e+00 1.991860e-01
    outer loop
      vertex   -4.822346e+00 5.000000e+00 -1.320977e+00
      vertex   -4.822346e+00 2.000000e+01 -1.320977e+00
      vertex   -4.955387e+00 5.000000e+00 -6.664348e-01
    endloop
  endfacet
  facet normal 9.799617e-01 -0.000000e+00 1.991860e-01
    outer loop
      vertex   -4.955387e+00 5.000000e+00 -6.664348e-01
      vertex   -4.822346e+00 2.000000e+01 -1.320977e+00
      vertex   -4.955387e+00 2.000000e+01 -6.664348e-01
    endloop
  endfacet
  facet normal -0.000000e+00 -1.000000e+00 0.000000e+00
    outer loop
      vertex   -4.955387e+00 5.000000e+00 6.664348e-01
      vertex   -2.500000e+01 5.000000e+00 2.500000e+01
      vertex   -5.000000e+00 5.000000e+00 6.123234e-16
    endloop
  endfacet
  facet normal -0.000000e+00 -1.000000e+00 0.000000e+00
    outer loop
      vertex   -5.000000e+00 5.000000e+00 6.123234e-16
      vertex   -2.500000e+01 5.000000e+00 2.500000e+01
      vertex   -2.500000e+01 5.000000e+00 -2.500000e+01
    endloop
  endfacet
  facet normal 0.000000e+00 -1.000000e+00 -0.000000e+00
    outer loop
      vertex   -5.000000e+00 5.000000e+00 6.123234e-16
      vertex   -2.500000e+01 5.000000e+00 -2.500000e+01
      vertex   -4.955387e+00 5.000000e+00 -6.664348e-01
    endloop
  endfacet
  facet normal 0.000000e+00 -1.000000e+00 -0.000000e+00
    outer loop
      vertex   -4.955387e+00 5.000000e+00 -6.664348e-01
      vertex   -2.500000e+01 5.000000e+00 -2.500000e+01
      vertex   -4.822346e+00 5.000000e+00 -1.320977e+00
    endloop
  endfacet
  facet normal 0.000000e+00 -1.000000e+00 -0.000000e+00
    outer loop
      vertex   -4.822346e+00 5.000000e+00 -1.320977e+00
      vertex   -2.500000e+01 5.000000e+00 -2.500000e+01
      vertex   -4.603249e+00 5.000000e+00 -1.951946e+00
    endloop
  endfacet
  facet normal 0.000000e+00 -1.000000e+00 -0.000000e+00
    outer loop
      vertex   -4.603249e+00 5.000000e+00 -1.951946e+00
      vertex   -2.500000e+01 5.000000e+00 -2.500000e+01
      vertex   -4.302008e+00 5.000000e+00 -2.548083e+00
    endloop
  endfacet
  facet normal 0.000000e+00 -1.000000e+00 -0.000000e+00
    outer loop
      vertex   -4.302008e+00 5.000000e+00 -2.548083e+00
      vertex   -2.500000e+01 5.000000e+00 -2.500000e+01
      vertex   -3.923997e+00 5.000000e+00 -3.098749e+00
    endloop
  endfacet
  facet normal 0.000000e+00 -1.000000e+00 -0.000000e+00
    outer loop
      vertex   -3.923997e+00 5.000000e+00 -3.098749e+00
      vertex   -2.500000e+01 5.000000e+00 -2.500000e+01
      vertex   -3.475962e+00 5.000000e+00 -3.594118e+00
    endloop
  endfacet
  facet normal 0.000000e+00 -1.000000e+00 -0.000000e+00
    outer loop
      vertex   -3.475962e+00 5.000000e+00 -3.594118e+00
      vertex   -2.500000e+01 5.000000e+00 -2.500000e+01
      vertex   -2.965899e+00 5.000000e+00 -4.025350e+00
    endloop
  endfacet
  facet normal 0.000000e+00 -1.000000e+00 -0.000000e+00
    outer loop
      vertex   -2.965899e+00 5.000000e+00 -4.025350e+00
      vertex   -2.500000e+01 5.000000e+00 -2.500000e+01
      vertex   -2.402909e+00 5.000000e+00 -4.384750e+00
    endloop
  endfacet
  facet normal 0.000000e+00 -1.000000e+00 -0.000000e+00
    outer loop
      vertex   -2.402909e+00 5.000000e+00 -4.384750e+00
      vertex   -2.500000e+01 5.000000e+00 -2.500000e+01
      vertex   -1.797039e+00 5.000000e+00 -4.665903e+00
    endloop
  endfacet
  facet normal 0.000000e+00 -1.000000e+00 -0.000000e+00
    outer loop
      vertex   -1.797039e+00 5.000000e+00 -4.665903e+00
      vertex   -2.500000e+01 5.000000e+00 -2.500000e+01
      vertex   -1.159101e+00 5.000000e+00 -4.863793e+00
    endloop
  endfacet
  facet normal 0.000000e+00 -1.000000e+00 -0.000000e+00
    outer loop
      vertex   -1.159101e+00 5.000000e+00 -4.863793e+00
      vertex   -2.500000e+01 5.000000e+00 -2.500000e+01
      vertex   -5.004785e-01 5.000000e+00 -4.974889e+00
    endloop
  endfacet
  facet normal 0.000000e+00 -1.000000e+00 -0.000000e+00
    outer loop
      vertex   -5.004785e-01 5.000000e+00 -4.974889e+00
      vertex   -2.500000e+01 5.000000e+00 -2.500000e+01
      vertex   1.670749e-01 5.000000e+00 -4.997208e+00
    endloop
  endfacet
  facet normal 0.000000e+00 -1.000000e+00 -0.000000e+00
    outer loop
      vertex   1.670749e-01 5.000000e+00 -4.997208e+00
      vertex   -2.500000e+01 5.000000e+00 -2.500000e+01
      vertex   2.500000e+01 5.000000e+00 -2.500000e+01
    endloop
  endfacet
  facet normal 0.000000e+00 -1.000000e+00 0.000000e+00
    outer loop
      vertex   1.670749e-01 5.000000e+00 -4.997208e+00
      vertex   2.500000e+01 5.000000e+00 -2.500000e+01
      vertex   8.316468e-01 5.000000e+00 -4.930351e+00
    endloop
  endfacet
  facet normal 0.000000e+00 -1.000000e+00 0.000000e+00
    outer loop
      vertex   8.316468e-01 5.000000e+00 -4.930351e+00
      vertex   2.500000e+01 5.000000e+00 -2.500000e+01
      vertex   1.481378e+00 5.000000e+00 -4.775512e+00
    endloop
  endfacet
  facet normal 0.000000e+00 -1.000000e+00 0.000000e+00
    outer loop
      vertex   1.481378e+00 5.000000e+00 -4.775512e+00
      vertex   2.500000e+01 5.000000e+00 -2.500000e+01
      vertex   2.104674e+00 5.000000e+00 -4.535455e+00
    endloop
  endfacet
  facet normal 0.000000e+00 -1.000000e+00 0.000000e+00
    outer loop
      vertex   2.104674e+00 5.000000e+00 -4.535455e+00
      vertex   2.500000e+01 5.000000e+00 -2.500000e+01
      vertex   2.690412e+00 5.000000e+00 -4.214461e+00
    endloop
  endfacet
  facet normal 0.000000e+00 -1.000000e+00 0.000000e+00
    outer loop
      vertex   2.690412e+00 5.000000e+00 -4.214461e+00
      vertex   2.500000e+01 5.000000e+00 -2.500000e+01
      vertex   3.228139e+00 5.000000e+00 -3.818261e+00
    endloop
  endfacet
  facet normal 0.000000e+00 -1.000000e+00 0.000000e+00
    outer loop
      vertex   3.228139e+00 5.000000e+00 -3.818261e+00
      vertex   2.500000e+01 5.000000e+00 -2.500000e+01
      vertex   3.708261e+00 5.000000e+00 -3.353924e+00
    endloop
  endfacet
  facet normal 0.000000e+00 -1.000000e+00 0.000000e+00
    outer loop
      vertex   3.708261e+00 5.000000e+00 -3.353924e+00
      vertex   2.500000e+01 5.000000e+00 -2.500000e+01
      vertex   4.122208e+00 5.000000e+00 -2.829735e+00
    endloop
  endfacet
  facet normal 0.000000e+00 -1.000000e+00 0.000000e+00
    outer loop
      vertex   4.122208e+00 5.000000e+00 -2.829735e+00
      vertex   2.500000e+01 5.000000e+00 -2.500000e+01
      vertex   4.462594e+00 5.000000e+00 -2.255051e+00
    endloop
  endfacet
  facet normal 0.000000e+00 -1.000000e+00 0.000000e+00
    outer loop
      vertex   4.462594e+00 5.000000e+00 -2.255051e+00
      vertex   2.500000e+01 5.000000e+00 -2.500000e+01
      vertex   4.723345e+00 5.000000e+00 -1.640124e+00
    endloop
  endfacet
  facet normal 0.000000e+00 -1.000000e+00 0.000000e+00
    outer loop
      vertex   4.723345e+00 5.000000e+00 -1.640124e+00
      vertex   2.500000e+01 5.000000e+00 -2.500000e+01
      vertex   4.899809e+00 5.000000e+00 -9.959299e-01
    endloop
  endfacet
  facet normal 0.000000e+00 -1.000000e+00 0.000000e+00
    outer loop
      vertex   4.899809e+00 5.000000e+00 -9.959299e-01
      vertex   2.500000e+01 5.000000e+00 -2.500000e+01
      vertex   4.988834e+00 5.000000e+00 -3.339632e-01
    endloop
  endfacet
  facet normal 0.000000e+00 -1.000000e+00 0.000000e+00
    outer loop
      vertex   4.988834e+00 5.000000e+00 -3.339632e-01
      vertex   2.500000e+01 5.000000e+00 -2.500000e+01
      vertex   4.988834e+00 5.000000e+00 3.339632e-01
    endloop
  endfacet
  facet normal 0.000000e+00 -1.000000e+00 0.000000e+00
    outer loop
      vertex   4.988834e+00 5.000000e+00 3.339632e-01
      vertex   2.500000e+01 5.000000e+00 -2.500000e+01
      vertex   2.500000e+01 5.000000e+00 2.500000e+01
    endloop
  endfacet
  facet normal 0.000000e+00 -1.000000e+00 0.000000e+00
    outer loop
      vertex   4.988834e+00 5.000000e+00 3.339632e-01
      vertex   2.500000e+01 5.000000e+00 2.500000e+01
      vertex   4.899809e+00 5.000000e+00 9.959299e-01
    endloop
  endfacet
  facet normal 0.000000e+00 -1.000000e+00 0.000000e+00
    outer loop
      vertex   4.899809e+00 5.000000e+00 9.959299e-01
      vertex   2.500000e+01 5.000000e+00 2.500000e+01
      vertex   4.723345e+00 5.000000e+00 1.640124e+00
    endloop
  endfacet
  facet normal 0.000000e+00 -1.000000e+00 0.000000e+00
    outer loop
      vertex   4.723345e+00 5.000000e+00 1.640124e+00
      vertex   2.500000e+01 5.000000e+00 2.500000e+01
      vertex   4.462594e+00 5.000000e+00 2.255051e+00
    endloop
  endfacet
  facet normal 0.000000e+00 -1.000000e+00 0.000000e+00
    outer loop
      vertex   4.462594e+00 5.000000e+00 2.255051e+00
      vertex   2.500000e+01 5.000000e+00 2.500000e+01
      vertex   4.122208e+00 5.000000e+00 2.829735e+00
    endloop
  endfacet
  facet normal 0.000000e+00 -1.000000e+00 0.000000e+00
    outer loop
      vertex   4.122208e+00 5.000000e+00 2.829735e+00
      vertex   2.500000e+01 5.000000e+00 2.500000e+01
      vertex   3.708261e+00 5.000000e+00 3.353924e+00
    endloop
  endfacet
  facet normal 0.000000e+00 -1.000000e+00 0.000000e+00
    outer loop
      vertex   3.708261e+00 5.000000e+00 3.353924e+00
      vertex   2.500000e+01 5.000000e+00 2.500000e+01
      vertex   3.228139e+00 5.000000e+00 3.818261e+00
    endloop
  endfacet
  facet normal 0.000000e+00 -1.000000e+00 0.000000e+00
    outer loop
      vertex   3.228139e+00 5.000000e+00 3.818261e+00
      vertex   2.500000e+01 5.000000e+00 2.500000e+01
      vertex   2.690412e+00 5.000000e+00 4.214461e+00
    endloop
  endfacet
  facet normal 0.000000e+00 -1.000000e+00 0.000000e+00
    outer loop
      vertex   2.690412e+00 5.000000e+00 4.214461e+00
      vertex   2.500000e+01 5.000000e+00 2.500000e+01
      vertex   2.104674e+00 5.000000e+00 4.535455e+00
    endloop
  endfacet
  facet normal 0.000000e+00 -1.000000e+00 0.000000e+00
    outer loop
      vertex   2.104674e+00 5.000000e+00 4.535455e+00
      vertex   2.500000e+01 5.000000e+00 2.500000e+01
      vertex   1.481378e+00 5.000000e+00 4.775512e+00
    endloop
  endfacet
  facet normal 0.000000e+00 -1.000000e+00 0.000000e+00
    outer loop
      vertex   1.481378e+00 5.000000e+00 4.775512e+00
      vertex   2.500000e+01 5.000000e+00 2.500000e+01
      vertex   8.316468e-01 5.000000e+00 4.930351e+00
    endloop
  endfacet
  facet normal 0.000000e+00 -1.000000e+00 0.000000e+00
    outer loop
      vertex   8.316468e-01 5.000000e+00 4.930351e+00
      vertex   2.500000e+01 5.000000e+00 2.500000e+01
      vertex   1.670749e-01 5.000000e+00 4.997208e+00
    endloop
  endfacet
  facet normal 0.000000e+00 -1.000000e+00 0.000000e+00
    outer loop
      vertex   1.670749e-01 5.000000e+00 4.997208e+00
      vertex   2.500000e+01 5.000000e+00 2.500000e+01
      vertex   -2.500000e+01 5.000000e+00 2.500000e+01
    endloop
  endfacet
  facet normal -0.000000e+00 -1.000000e+00 0.000000e+00
    outer loop
      vertex   1.670749e-01 5.000000e+00 4.997208e+00
      vertex   -2.500000e+01 5.000000e+00 2.500000e+01
      vertex   -5.004785e-01 5.000000e+00 4.974889e+00
    endloop
  endfacet
  facet normal -0.000000e+00 -1.000000e+00 0.000000e+00
    outer loop
      vertex   -5.004785e-01 5.000000e+00 4.974889e+00
      vertex   -2.500000e+01 5.000000e+00 2.500000e+01
      vertex   -1.159101e+00 5.000000e+00 4.863793e+00
    endloop
  endfacet
  facet normal -0.000000e+00 -1.000000e+00 0.000000e+00
    outer loop
      vertex   -1.159101e+00 5.000000e+00 4.863793e+00
      vertex   -2.500000e+01 5.000000e+00 2.500000e+01
      vertex   -1.797039e+00 5.000000e+00 4.665903e+00
    endloop
  endfacet
  facet normal -0.000000e+00 -1.000000e+00 0.000000e+00
    outer loop
      vertex   -1.797039e+00 5.000000e+00 4.665903e+00
      vertex   -2.500000e+01 5.000000e+00 2.500000e+01
      vertex   -2.402909e+00 5.000000e+00 4.384750e+00
    endloop
  endfacet
  facet normal -0.000000e+00 -1.000000e+00 0.000000e+00
    outer loop
      vertex   -2.402909e+00 5.000000e+00 4.384750e+00
      vertex   -2.500000e+01 5.000000e+00 2.500000e+01
      vertex   -2.965899e+00 5.000000e+00 4.025350e+00
    endloop
  endfacet
  facet normal -0.000000e+00 -1.000000e+00 0.000000e+00
    outer loop
      vertex   -2.965899e+00 5.000000e+00 4.025350e+00
      vertex   -2.500000e+01 5.000000e+00 2.500000e+01
      vertex   -3.475962e+00 5.000000e+00 3.594118e+00
    endloop
  endfacet
  facet normal -0.000000e+00 -1.000000e+00 0.000000e+00
    outer loop
      vertex   -3.475962e+00 5.000000e+00 3.594118e+00
      vertex   -2.500000e+01 5.000000e+00 2.500000e+01
      vertex   -3.923997e+00 5.000000e+00 3.098749e+00
    endloop
  endfacet
  facet normal -0.000000e+00 -1.000000e+00 0.000000e+00
    outer loop
      vertex   -3.923997e+00 5.000000e+00 3.098749e+00
      vertex   -2.500000e+01 5.000000e+00 2.500000e+01
      vertex   -4.302008e+00 5.000000e+00 2.548083e+00
    endloop
  endfacet
  facet normal -0.000000e+00 -1.000000e+00 0.000000e+00
    outer loop
      vertex   -4.302008e+00 5.000000e+00 2.548083e+00
      vertex   -2.500000e+01 5.000000e+00 2.500000e+01
      vertex   -4.603249e+00 5.000000e+00 1.951946e+00
    endloop
  endfacet
  facet normal -0.000000e+00 -1.000000e+00 0.000000e+00
    outer loop
      vertex   -4.603249e+00 5.000000e+00 1.951946e+00
      vertex   -2.500000e+01 5.000000e+00 2.500000e+01
      vertex   -4.822346e+00 5.000000e+00 1.320977e+00
    endloop
  endfacet
  facet normal -0.000000e+00 -1.000000e+00 0.000000e+00
    outer loop
      vertex   -4.822346e+00 5.000000e+00 1.320977e+00
      vertex   -2.500000e+01 5.000000e+00 2.500000e+01
      vertex   -4.955387e+00 5.000000e+00 6.664348e-01
    endloop
  endfacet
  facet normal 0.000000e+00 1.000000e+00 0.000000e+00
    outer loop
      vertex   -4.955387e+00 2.000000e+01 -6.664348e-01
      vertex   -2.500000e+01 2.000000e+01 -2.500000e+01
      vertex   -5.000000e+00 2.000000e+01 -6.123234e-16
    endloop
  endfacet
  facet normal 0.000000e+00 1.000000e+00 0.000000e+00
    outer loop
      vertex   -5.000000e+00 2.000000e+01 -6.123234e-16
      vertex   -2.500000e+01 2.000000e+01 -2.500000e+01
      vertex   -2.500000e+01 2.000000e+01 2.500000e+01
    endloop
  endfacet
  facet normal 0.000000e+00 1.000000e+00 -0.000000e+00
    outer loop
      vertex   -5.000000e+00 2.000000e+01 -6.123234e-16
      vertex   -2.500000e+01 2.000000e+01 2.500000e+01
      vertex   -4.955387e+00 2.000000e+01 6.664348e-01
    endloop
  endfacet
  facet normal 0.000000e+00 1.000000e+00 -0.000000e+00
    outer loop
      vertex   -4.955387e+00 2.000000e+01 6.664348e-01
      vertex   -2.500000e+01 2.000000e+01 2.500000e+01
      vertex   -4.822346e+00 2.000000e+01 1.320977e+00
    endloop
  endfacet
  facet normal 0.000000e+00 1.000000e+00 -0.000000e+00
    outer loop
      vertex   -4.822346e+00 2.000000e+01 1.320977e+00
      vertex   -2.500000e+01 2.000000e+01 2.500000e+01
      vertex   -4.603249e+00 2.000000e+01 1.951946e+00
    endloop
  endfacet
  facet normal 0.000000e+00 1.000000e+00 -0.000000e+00
    outer loop
      vertex   -4.603249e+00 2.000000e+01 1.951946e+00
      vertex   -2.500000e+01 2.000000e+01 2.500000e+01
      vertex   -4.302008e+00 2.000000e+01 2.548083e+00
    endloop
  endfacet
  facet normal 0.000000e+00 1.000000e+00 -0.000000e+00
    outer loop
      vertex   -4.302008e+00 2.000000e+01 2.548083e+00
      vertex   -2.500000e+01 2.000000e+01 2.500000e+01
      vertex   -3.923997e+00 2.000000e+01 3.098749e+00
    endloop
  endfacet
  facet normal 0.000000e+00 1.000000e+00 -0.000000e+00
    outer loop
      vertex   -3.923997e+00 2.000000e+01 3.098749e+00
      vertex   -2.500000e+01 2.000000e+01 2.500000e+01
      vertex   -3.475962e+00 2.000000e+01 3.594118e+00
    endloop
  endfacet
  facet normal 0.000000e+00 1.000000e+00 -0.000000e+00
    outer loop
      vertex   -3.475962e+00 2.000000e+01 3.594118e+00
      vertex   -2.500000e+01 2.000000e+01 2.500000e+01
      vertex   -2.965899e+00 2.000000e+01 4.025350e+00
    endloop
  endfacet
  facet normal 0.000000e+00 1.000000e+00 -0.000000e+00
    outer loop
      vertex   -2.965899e+00 2.000000e+01 4.025350e+00
      vertex   -2.500000e+01 2.000000e+01 2.500000e+01
      vertex   -2.402909e+00 2.000000e+01 4.384750e+00
    endloop
  endfacet
  facet normal 0.000000e+00 1.000000e+00 -0.000000e+00
    outer loop
      vertex   -2.402909e+00 2.000000e+01 4.384750e+00
      vertex   -2.500000e+01 2.000000e+01 2.500000e+01
      vertex   -1.797039e+00 2.000000e+01 4.665903e+00
    endloop
  endfacet
  facet normal 0.000000e+00 1.000000e+00 -0.000000e+00
    outer loop
      vertex   -1.797039e+00 2.000000e+01 4.665903e+00
      vertex   -2.500000e+01 2.000000e+01 2.500000e+01
      vertex   -1.159101e+00 2.000000e+01 4.863793e+00
    endloop
  endfacet
  facet normal 0.000000e+00 1.000000e+00 -0.000000e+00
    outer loop
      vertex   -1.159101e+00 2.000000e+01 4.863793e+00
      vertex   -2.500000e+01 2.000000e+01 2.500000e+01
      vertex   -5.004785e-01 2.000000e+01 4.974889e+00
    endloop
  endfacet
  facet normal 0.000000e+00 1.000000e+00 -0.000000e+00
    outer loop
      vertex   -5.004785e-01 2.000000e+01 4.974889e+00
      vertex   -2.500000e+01 2.000000e+01 2.500000e+01
      vertex   1.670749e-01 2.000000e+01 4.997208e+00
    endloop
  endfacet
  facet normal 0.000000e+00 1.000000e+00 -0.000000e+00
    outer loop
      vertex   1.670749e-01 2.000000e+01 4.997208e+00
      vertex   -2.500000e+01 2.000000e+01 2.500000e+01
      vertex   2.500000e+01 2.000000e+01 2.500000e+01
    endloop
  endfacet
  facet normal -0.000000e+00 1.000000e+00 0.000000e+00
    outer loop
      vertex   1.670749e-01 2.000000e+01 4.997208e+00
      vertex   2.500000e+01 2.000000e+01 2.500000e+01
      vertex   8.316468e-01 2.000000e+01 4.930351e+00
    endloop
  endfacet
  facet normal -0.000000e+00 1.000000e+00 0.000000e+00
    outer loop
      vertex   8.316468e-01 2.000000e+01 4.930351e+00
      vertex   2.500000e+01 2.000000e+01 2.500000e+01
      vertex   1.481378e+00 2.000000e+01 4.775512e+00
    endloop
  endfacet
  facet normal -0.000000e+00 1.000000e+00 0.000000e+00
    outer loop
      vertex   1.481378e+00 2.000000e+01 4.775512e+00
      vertex   2.500000e+01 2.000000e+01 2.500000e+01
      vertex   2.104674e+00 2.000000e+01 4.535455e+00
    endloop
  endfacet
  facet normal -0.000000e+00 1.000000e+00 0.000000e+00
    outer loop
      vertex   2.104674e+00 2.000000e+01 4.535455e+00
      vertex   2.500000e+01 2.000000e+01 2.500000e+01
      vertex   2.690412e+00 2.000000e+01 4.214461e+00
    endloop
  endfacet
  facet normal -0.000000e+00 1.000000e+00 0.000000e+00
    outer loop
      vertex   2.690412e+00 2.000000e+01 4.214461e+00
      vertex   2.500000e+01 2.000000e+01 2.500000e+01
      vertex   3.228139e+00 2.000000e+01 3.818261e+00
    endloop
  endfacet
  facet normal -0.000000e+00 1.000000e+00 0.000000e+00
    outer loop
      vertex   3.228139e+00 2.000000e+01 3.818261e+00
      vertex   2.500000e+01 2.000000e+01 2.500000e+01
      vertex   3.708261e+00 2.000000e+01 3.353924e+00
    endloop
  endfacet
  facet normal -0.000000e+00 1.000000e+00 0.000000e+00
    outer loop
      vertex   3.708261e+00 2.000000e+01 3.353924e+00
      vertex   2.500000e+01 2.000000e+01 2.500000e+01
      vertex   4.122208e+00 2.000000e+01 2.829735e+00
    endloop
  endfacet
  facet normal -0.000000e+00 1.000000e+00 0.000000e+00
    outer loop
      vertex   4.122208e+00 2.000000e+01 2.829735e+00
      vertex   2.500000e+01 2.000000e+01 2.500000e+01
      vertex   4.462594e+00 2.000000e+01 2.255051e+00
    endloop
  endfacet
  facet normal -0.000000e+00 1.000000e+00 0.000000e+00
    outer loop
      vertex   4.462594e+00 2.000000e+01 2.255051e+00
      vertex   2.500000e+01 2.000000e+01 2.500000e+01
      vertex   4.723345e+00 2.000000e+01 1.640124e+00
    endloop
  endfacet
  facet normal -0.000000e+00 1.000000e+00 0.000000e+00
    outer loop
      vertex   4.723345e+00 2.000000e+01 1.640124e+00
      vertex   2.500000e+01 2.000000e+01 2.500000e+01
      vertex   4.899809e+00 2.000000e+01 9.959299e-01
    endloop
  endfacet
  facet normal -0.000000e+00 1.000000e+00 0.000000e+00
    outer loop
      vertex   4.899809e+00 2.000000e+01 9.959299e-01
      vertex   2.500000e+01 2.000000e+01 2.500000e+01
      vertex   4.988834e+00 2.000000e+01 3.339632e-01
    endloop
  endfacet
  facet normal -0.000000e+00 1.000000e+00 0.000000e+00
    outer loop
      vertex   4.988834e+00 2.000000e+01 3.339632e-01
      vertex   2.500000e+01 2.000000e+01 2.500000e+01
      vertex   2.500000e+01 2.000000e+01 -2.500000e+01
    endloop
  endfacet
  facet normal 0.000000e+00 1.000000e+00 0.000000e+00
    outer loop
      vertex   4.988834e+00 2.000000e+01 3.339632e-01
      vertex   2.500000e+01 2.000000e+01 -2.500000e+01
      vertex   4.988834e+00 2.000000e+01 -3.339632e-01
    endloop
  endfacet
  facet normal 0.000000e+00 1.000000e+00 0.000000e+00
    outer loop
      vertex   4.988834e+00 2.000000e+01 -3.339632e-01
      vertex   2.500000e+01 2.000000e+01 -2.500000e+01
      vertex   4.899809e+00 2.000000e+01 -9.959299e-01
    endloop
  endfacet
  facet normal 0.000000e+00 1.000000e+00 0.000000e+00
    outer loop
      vertex   4.899809e+00 2.000000e+01 -9.959299e-01
      vertex   2.500000e+01 2.000000e+01 -2.500000e+01
      vertex   4.723345e+00 2.000000e+01 -1.640124e+00
    endloop
  endfacet
  facet normal 0.000000e+00 1.000000e+00 0.000000e+00
    outer loop
      vertex   4.723345e+00 2.000000e+01 -1.640124e+00
      vertex   2.500000e+01 2.000000e+01 -2.500000e+01
      vertex   4.462594e+00 2.000000e+01 -2.255051e+00
    endloop
  endfacet
  facet normal 0.000000e+00 1.000000e+00 0.000000e+00
    outer loop
      vertex   4.462594e+00 2.000000e+01 -2.255051e+00
      vertex   2.500000e+01 2.000000e+01 -2.500000e+01
      vertex   4.122208e+00 2.000000e+01 -2.829735e+00
    endloop
  endfacet
  facet normal 0.000000e+00 1.000000e+00 0.000000e+00
    outer loop
      vertex   4.122208e+00 2.000000e+01 -2.829735e+00
      vertex   2.500000e+01 2.000000e+01 -2.500000e+01
      vertex   3.708261e+00 2.000000e+01 -3.353924e+00
    endloop
  endfacet
  facet normal 0.000000e+00 1.000000e+00 0.000000e+00
    outer loop
      vertex   3.708261e+00 2.000000e+01 -3.353924e+00
      vertex   2.500000e+01 2.000000e+01 -2.500000e+01
      vertex   3.228139e+00 2.000000e+01 -3.818261e+00
    endloop
  endfacet
  facet normal 0.000000e+00 1.000000e+00 0.000000e+00
    outer loop
      vertex   3.228139e+00 2.000000e+01 -3.818261e+00
      vertex   2.500000e+01 2.000000e+01 -2.500000e+01
      vertex   2.690412e+00 2.000000e+01 -4.214461e+00
    endloop
  endfacet
  facet normal 0.000000e+00 1.000000e+00 0.000000e+00
    outer loop
      vertex   2.690412e+00 2.000000e+01 -4.214461e+00
      vertex   2.500000e+01 2.000000e+01 -2.500000e+01
      vertex   2.104674e+00 2.000000e+01 -4.535455e+00
    endloop
  endfacet
  facet normal 0.000000e+00 1.000000e+00 0.000000e+00
    outer loop
      vertex   2.104674e+00 2.000000e+01 -4.535455e+00
      vertex   2.500000e+01 2.000000e+01 -2.500000e+01
      vertex   1.481378e+00 2.000000e+01 -4.775512e+00
    endloop
  endfacet
  facet normal 0.000000e+00 1.000000e+00 0.000000e+00
    outer loop
      vertex   1.481378e+00 2.000000e+01 -4.775512e+00
      vertex   2.500000e+01 2.000000e+01 -2.500000e+01
      vertex   8.316468e-01 2.000000e+01 -4.930351e+00
    endloop
  endfacet
  facet normal 0.000000e+00 1.000000e+00 0.000000e+00
    outer loop
      vertex   8.316468e-01 2.000000e+01 -4.930351e+00
      vertex   2.500000e+01 2.000000e+01 -2.500000e+01
      vertex   1.670749e-01 2.000000e+01 -4.997208e+00
    endloop
  endfacet
  facet normal 0.000000e+00 1.000000e+00 0.000000e+00
    outer loop
      vertex   1.670749e-01 2.000000e+01 -4.997208e+00
      vertex   2.500000e+01 2.000000e+01 -2.500000e+01
      vertex   -2.500000e+01 2.000000e+01 -2.500000e+01
    endloop
  endfacet
  facet normal 0.000000e+00 1.000000e+00 0.000000e+00
    outer loop
      vertex   1.670749e-01 2.000000e+01 -4.997208e+00
      vertex   -2.500000e+01 2.000000e+01 -2.500000e+01
      vertex   -5.004785e-01 2.000000e+01 -4.974889e+00
    endloop
  endfacet
  facet normal 0.000000e+00 1.000000e+00 0.000000e+00
    outer loop
      vertex   -5.004785e-01 2.000000e+01 -4.974889e+00
      vertex   -2.500000e+01 2.000000e+01 -2.500000e+01
      vertex   -1.159101e+00 2.000000e+01 -4.863793e+00
    endloop
  endfacet
  facet normal 0.000000e+00 1.000000e+00 0.000000e+00
    outer loop
      vertex   -1.159101e+00 2.000000e+01 -4.863793e+00
      vertex   -2.500000e+01 2.000000e+01 -2.500000e+01
      vertex   -1.797039e+00 2.000000e+01 -4.665903e+00
    endloop
  endfacet
  facet normal 0.000000e+00 1.000000e+00 0.000000e+00
    outer loop
      vertex   -1.797039e+00 2.000000e+01 -4.665903e+00
      vertex   -2.500000e+01 2.000000e+01 -2.500000e+01
      vertex   -2.402909e+00 2.000000e+01 -4.384750e+00
    endloop
  endfacet
  facet normal 0.000000e+00 1.000000e+00 0.000000e+00
    outer loop
      vertex   -2.402909e+00 2.000000e+01 -4.384750e+00
      vertex   -2.500000e+01 2.000000e+01 -2.500000e+01
      vertex   -2.965899e+00 2.000000e+01 -4.025350e+00
    endloop
  endfacet
  facet normal 0.000000e+00 1.000000e+00 0.000000e+00
    outer loop
      vertex   -2.965899e+00 2.000000e+01 -4.025350e+00
      vertex   -2.500000e+01 2.000000e+01 -2.500000e+01
      vertex   -3.475962e+00 2.000000e+01 -3.594118e+00
    endloop
  endfacet
  facet normal 0.000000e+00 1.000000e+00 0.000000e+00
    outer loop
      vertex   -3.475962e+00 2.000000e+01 -3.594118e+00
      vertex   -2.500000e+01 2.000000e+01 -2.500000e+01
      vertex   -3.923997e+00 2.000000e+01 -3.098749e+00
    endloop
  endfacet
  facet normal 0.000000e+00 1.000000e+00 0.000000e+00
    outer loop
      vertex   -3.923997e+00 2.000000e+01 -3.098749e+00
      vertex   -2.500000e+01 2.000000e+01 -2.500000e+01
      vertex   -4.302008e+00 2.000000e+01 -2.548083e+00
    endloop
  endfacet
  facet normal 0.000000e+00 1.000000e+00 0.000000e+00
    outer loop
      vertex   -4.302008e+00 2.000000e+01 -2.548083e+00
      vertex   -2.500000e+01 2.000000e+01 -2.500000e+01
      vertex   -4.603249e+00 2.000000e+01 -1.951946e+00
    endloop
  endfacet
  facet normal 0.000000e+00 1.000000e+00 0.000000e+00
    outer loop
      vertex   -4.603249e+00 2.000000e+01 -1.951946e+00
      vertex   -2.500000e+01 2.000000e+01 -2.500000e+01
      vertex   -4.822346e+00 2.000000e+01 -1.320977e+00
    endloop
  endfacet
  facet normal 0.000000e+00 1.000000e+00 0.000000e+00
    outer loop
      vertex   -4.822346e+00 2.000000e+01 -1.320977e+00
      vertex   -2.500000e+01 2.000000e+01 -2.500000e+01
      vertex   -4.955387e+00 2.000000e+01 -6.664348e-01
    endloop
  endfacet
endsolid
